<?xml version="1.0" standalone="no"?>
<!DOCTYPE svg PUBLIC "-//W3C//DTD SVG 1.1//EN" "http://www.w3.org/Graphics/SVG/1.1/DTD/svg11.dtd" >
<svg xmlns="http://www.w3.org/2000/svg">
<metadata>Generated by IcoMoon</metadata>
<defs>
<font id="Infiniti-Iconfont" horiz-adv-x="1024">
<font-face units-per-em="1024" ascent="960" descent="-64" />
<missing-glyph horiz-adv-x="1024" />
<glyph unicode="&#x20;" horiz-adv-x="512" d="" />
<glyph unicode="&#xe6;" glyph-name="Youtube" d="M512.073 194.267h-0.293c-7.314 0.073-178.615 1.609-233.545 6.949l-10.021 1.39c-18.871 2.267-53.979 6.51-82.213 36.059-25.088 25.454-32.987 73.289-34.304 82.578-0.366 2.779-7.022 57.783-7.022 113.81v51.639c0 56.101 6.729 111.104 7.022 113.371 1.317 9.801 9.216 57.637 34.67 83.456 30.062 31.451 64.219 34.816 80.75 36.352 99.986 7.387 238.958 7.461 244.809 7.461 6.144 0 145.042-0.073 240.128-6.949 21.431-2.048 55.589-5.413 86.016-37.23 25.088-25.454 32.987-73.289 34.304-82.578 0.366-2.779 7.095-57.783 7.095-113.883v-51.639c0-56.101-6.729-111.104-7.022-113.371-1.39-9.801-9.289-57.637-34.743-83.456-30.062-31.451-64.219-34.816-80.75-36.352-100.059-7.314-239.031-7.607-244.882-7.607zM512.146 672.475c-1.682 0-143.141-0.073-236.178-6.802-16.457-1.682-33.938-3.291-50.249-20.407-9.874-10.021-17.481-37.157-19.749-52.443 0 0-6.51-53.541-6.51-106.13v-51.639c0-52.736 6.51-106.13 6.583-106.642 2.194-15.287 9.801-41.911 19.31-51.566 14.994-15.653 34.085-17.993 49.445-19.822 4.315-0.512 8.046-0.951 11.118-1.536 49.591-4.608 220.818-6.217 226.231-6.29 5.632 0 144.311 0.439 235.886 7.022 16.53 1.609 34.011 3.365 50.322 20.334 9.874 10.021 17.481 37.157 19.749 52.443 0 0 6.51 53.541 6.51 106.13v51.566c0 52.736-6.51 106.13-6.583 106.642-2.194 15.287-9.801 41.911-19.31 51.566-16.677 17.408-34.158 19.090-46.958 20.334-96.768 7.168-238.226 7.241-239.616 7.241zM414.354 327.461v281.381l270.555-141.166-270.555-140.215zM469.211 518.437v-100.718l96.841 50.176-96.841 50.542z" />
<glyph unicode="&#xe600;" glyph-name="Configure" d="M512.146 245.687c-118.638 0-215.113 96.475-215.113 215.113s96.475 215.113 215.113 215.113c118.565 0 215.040-96.475 215.040-215.113s-96.475-215.113-215.040-215.113zM512.146 621.056c-88.357 0-160.256-71.899-160.256-160.256s71.899-160.256 160.256-160.256 160.183 71.899 160.183 160.256-71.826 160.256-160.183 160.256zM630.565-44.032h-236.837v107.301c-60.635 17.993-116.224 49.737-162.962 92.965l-86.235-56.101-129.097 198.51 94.281 61.294c-8.265 32.914-12.434 66.706-12.434 100.864 0 33.061 3.95 65.902 11.776 98.011l-94.574 61.513 129.097 198.583 85.065-55.296c48.567 45.495 106.862 78.409 170.642 96.402v105.618h236.837v-108.837c59.319-18.578 113.737-50.322 159.378-93.111l84.919 55.223 129.097-198.583-94.281-61.294c7.826-32.183 11.776-65.097 11.776-98.231 0-34.085-4.169-68.023-12.434-101.010l93.989-61.147-129.17-198.583-86.016 55.954c-46.519-43.008-102.107-74.679-162.889-92.818v-107.227zM448.585 10.825h127.122v95.013l20.992 5.047c66.121 16.091 126.245 50.322 173.568 99.182l15.726 16.238 77.458-50.322 69.266 106.569-82.139 53.394 5.998 19.749c10.313 34.158 15.579 69.486 15.579 105.179 0 34.743-4.974 69.193-14.848 102.546l-5.851 19.675 82.213 53.394-69.339 106.569-76.434-49.737-15.726 16.457c-46.665 48.567-105.545 83.163-170.277 99.767l-20.626 5.266v95.963h-127.122v-94.062l-21.358-4.827c-69.047-15.506-131.584-50.907-180.736-102.327l-15.726-16.384-76.654 49.81-69.339-106.569 82.432-53.541-5.778-19.675c-9.874-33.353-14.848-67.73-14.848-102.4 0-35.621 5.266-71.022 15.579-104.96l5.998-19.822-82.359-53.541 69.266-106.569 77.531 50.395 15.726-16.165c47.689-49.152 107.739-83.456 173.714-99.328l20.992-5.047v-94.939z" />
<glyph unicode="&#xe601;" glyph-name="LeftArrow" d="M688.859-29.842l-499.858 499.858 504.613 504.613 103.424-103.424-401.189-401.189 396.434-396.434z" />
<glyph unicode="&#xe602;" glyph-name="RightArrow" d="M311.369-41.472l-103.424 103.424 401.262 401.262-396.507 396.434 103.497 103.424 499.858-499.858z" />
<glyph unicode="&#xe603;" glyph-name="DownArrow" d="M514.341 156.745l-504.613 504.686 103.424 103.424 401.189-401.262 396.507 396.507 103.424-103.497z" />
<glyph unicode="&#xe604;" glyph-name="UpArrow" d="M910.848 156.745l-401.262 401.262-396.434-396.434-103.424 103.424 499.858 499.858 504.686-504.686z" />
<glyph unicode="&#xe605;" glyph-name="MapView" d="M518.51-32.402l-294.4 488.887c-29.989 51.858-45.787 110.811-45.787 170.862 0 188.27 153.161 341.431 341.358 341.431 188.27 0 341.431-153.161 341.431-341.431 0-59.392-15.506-117.76-44.763-169.106l-297.838-490.642zM519.68 913.92c-157.989 0-286.501-128.585-286.501-286.574 0-50.395 13.239-99.84 38.107-142.994l247.296-410.77 250.514 412.599c24.137 42.35 37.157 91.355 37.157 141.239 0 157.915-128.512 286.501-286.574 286.501zM521.289 463.214c-73.362 0-133.047 59.685-133.047 133.047 0 73.435 59.685 133.12 133.047 133.12s133.047-59.685 133.047-133.12c0-73.289-59.685-133.047-133.047-133.047zM521.289 674.597c-43.154 0-78.19-35.109-78.19-78.263s35.035-78.19 78.19-78.19 78.19 35.035 78.19 78.19-35.035 78.263-78.19 78.263z" />
<glyph unicode="&#xe606;" glyph-name="Plus" d="M58.514 490.057h906.971v-58.514h-906.971v58.514zM482.743 914.286h58.514v-906.971h-58.514v906.971z" />
<glyph unicode="&#xe607;" glyph-name="Search" d="M1018.514 51.931l-290.889 293.522c44.69 64.658 71.095 143.067 71.095 227.621 0 220.379-177.957 399.579-396.654 399.579s-396.581-179.273-396.581-399.579c0-220.306 177.957-399.579 396.581-399.579 82.213 0 158.647 25.307 222.062 68.681l290.523-293.23 103.863 102.985zM151.771 573.074c0 139.703 112.274 253.294 250.295 253.294 138.094 0 250.368-113.664 250.368-253.294s-112.274-253.294-250.368-253.294c-138.021 0-250.295 113.591-250.295 253.294z" />
<glyph unicode="&#xe608;" glyph-name="CloseCross" d="M38.779 31.515l905.088 905.088 41.375-41.375-905.088-905.088-41.375 41.375zM38.743 890.085l41.375 41.375 905.088-905.088-41.375-41.375-905.088 905.088z" />
<glyph unicode="&#xe609;" glyph-name="Burger" d="M7.314 753.371h1016.686v-58.514h-1016.686v58.514zM7.314 490.057h1016.686v-58.514h-1016.686v58.514zM7.314 234.057h1016.686v-58.514h-1016.686v58.514z" />
<glyph unicode="&#xe60a;" glyph-name="Twitter" d="M402.286 131.657c-80.457 0-153.6 21.943-219.429 58.514-7.314 7.314-14.629 21.943-14.629 29.257s14.629 21.943 29.257 21.943c0 0 0 0 0 0 43.886 0 80.457 7.314 109.714 21.943-51.2 21.943-87.771 58.514-117.029 109.714-7.314 7.314 0 21.943 7.314 29.257 0 0 7.314 7.314 7.314 7.314-21.943 21.943-36.571 51.2-43.886 87.771 0 7.314 0 14.629 0 29.257s7.314 21.943 14.629 29.257c0 0 7.314 0 7.314 0-21.943 51.2-21.943 102.4 0 160.914 7.314 7.314 14.629 14.629 21.943 14.629s21.943 0 21.943-7.314c73.143-87.771 153.6-131.657 248.686-138.971 0 0 0 0 0 0 0 51.2 14.629 87.771 51.2 124.343 29.257 36.571 73.143 51.2 117.029 51.2 51.2 0 87.771-14.629 124.343-43.886 0 0 7.314 0 7.314 0l14.629 7.314c14.629 7.314 29.257 7.314 43.886 14.629 14.629 0 21.943 0 29.257-7.314s7.314-21.943 0-29.257c0 0 0 0 0-7.314 7.314 0 14.629 0 21.943-7.314s7.314-21.943 0-36.571c-14.629-29.257-36.571-51.2-58.514-65.829 0-7.314 0-14.629 0-21.943 0-117.029-43.886-219.429-124.343-307.2-80.457-80.457-175.543-117.029-285.257-124.343h-14.629c0 0 0 0 0 0zM292.571 204.8c36.571-7.314 73.143-14.629 109.714-14.629h21.943c95.086 7.314 175.543 43.886 248.686 109.714 73.143 73.143 109.714 160.914 109.714 263.314 0 14.629 0 21.943 0 36.571 0 7.314 7.314 14.629 7.314 21.943-7.314 0-14.629 7.314-14.629 14.629s0 14.629 0 21.943c0 0-7.314 0-7.314 0-7.314 0-14.629 0-21.943 7.314 0 0-7.314 7.314-7.314 7.314-21.943 21.943-51.2 36.571-80.457 36.571-36.571 0-65.829-14.629-87.771-36.571s-36.571-51.2-36.571-80.457c0-7.314 0-14.629 0-29.257 0-7.314 0-14.629-7.314-21.943 0-7.314-7.314-14.629-14.629-14.629 0 0 0 0 0 0-117.029 0-212.114 43.886-292.571 117.029-7.314-36.571 7.314-73.143 51.2-117.029 7.314-7.314 7.314-21.943 7.314-29.257-7.314-7.314-21.943-14.629-29.257-14.629s-14.629 0-21.943 0c14.629-36.571 43.886-58.514 87.771-80.457 7.314-7.314 14.629-14.629 14.629-21.943 0-14.629-7.314-21.943-14.629-29.257-14.629 0-21.943-7.314-36.571-7.314 21.943-21.943 58.514-36.571 95.086-43.886 7.314 0 21.943-7.314 21.943-21.943 0-7.314 0-21.943-7.314-29.257-29.257-14.629-58.514-36.571-95.086-43.886zM972.8 921.6v-914.286h-914.286v914.286h914.286zM1031.314 972.8h-1031.314v-1024h1024v1024h7.314z" />
<glyph unicode="&#xe60b;" glyph-name="TestDrive" d="M512 965.339c-278.235 0-504.539-226.304-504.539-504.539s226.304-504.539 504.539-504.539 504.539 226.304 504.539 504.539-226.304 504.539-504.539 504.539zM512 910.482c238.738 0 434.030-187.099 448.293-422.254h-169.618c-20.699 86.894-136.192 113.225-208.091 114.249h-141.605c-71.534-1.024-186.953-27.355-207.653-114.249h-169.618c14.263 235.154 209.554 422.254 448.293 422.254zM512 247.735c-98.085 0-228.133 121.49-228.133 213.065 0 81.993 156.379 86.821 157.477 86.821h140.946c1.536 0 157.842-4.462 157.842-86.821 0-91.575-130.048-213.065-228.133-213.065zM63.707 433.371h169.326c18.505-107.227 138.386-220.306 251.538-236.91v-184.027c-226.085 13.751-407.186 194.853-420.864 420.937zM539.429 12.507v184.027c113.152 16.603 233.106 129.682 251.538 236.91h169.326c-13.678-226.158-194.779-407.259-420.864-420.937z" />
<glyph unicode="&#xe60c;" glyph-name="Speed" d="M663.333 450.121l-109.275-109.495c-12.8 6.729-26.624 11.483-42.057 11.483-50.688 0-91.941-41.179-91.941-91.941s41.253-92.014 91.941-92.014 91.941 41.253 91.941 92.014c0 15.214-4.608 28.965-11.191 41.618l109.495 109.568-38.912 38.766zM512 223.013c-20.407 0-37.083 16.677-37.083 37.157 0 20.407 16.677 37.083 37.083 37.083s37.083-16.677 37.083-37.083c0-20.48-16.677-37.157-37.083-37.157zM512 753.445c-272.238 0-493.641-221.477-493.641-493.641v-27.502l140.361 0.439-0.146 54.857-84.48-0.293c6.217 100.425 46.446 191.781 109.202 262.802l56.539-56.686 38.839 38.693-56.32 56.466c70.875 62.537 161.938 102.4 262.144 108.617v-78.19h54.857v78.19c100.279-6.217 191.415-46.153 262.29-108.763l-56.466-56.686 38.839-38.693 56.759 56.905c62.683-70.949 102.839-162.304 109.056-262.729h-84.553v-54.857h140.361v27.429c0 272.165-221.403 493.641-493.641 493.641z" />
<glyph unicode="&#xe60d;" glyph-name="Share" d="M371.435 555.901l255.099 171.141 32.598-48.59-255.099-171.141-32.598 48.59zM371.689 366.196l28.032 42.844 257.065-168.192-28.032-42.844-257.065 168.192zM270.629 563.2c58.514 0 109.714-51.2 109.714-109.714s-51.2-109.714-109.714-109.714-109.714 51.2-109.714 109.714c0 65.829 51.2 109.714 109.714 109.714zM270.629 621.714c-87.771 0-168.229-73.143-168.229-168.229s73.143-168.229 168.229-168.229 168.229 73.143 168.229 168.229-80.457 168.229-168.229 168.229v0zM753.371 248.686c58.514 0 109.714-51.2 109.714-109.714s-51.2-109.714-109.714-109.714-109.714 51.2-109.714 109.714 51.2 109.714 109.714 109.714zM753.371 307.2c-87.771 0-168.229-73.143-168.229-168.229s73.143-168.229 168.229-168.229 168.229 73.143 168.229 168.229-73.143 168.229-168.229 168.229v0zM753.371 892.343c58.514 0 109.714-51.2 109.714-109.714s-51.2-109.714-109.714-109.714-109.714 51.2-109.714 109.714c0 58.514 51.2 109.714 109.714 109.714zM753.371 950.857c-87.771 0-168.229-73.143-168.229-168.229s73.143-168.229 168.229-168.229 168.229 73.143 168.229 168.229-73.143 168.229-168.229 168.229v0z" />
<glyph unicode="&#xe60e;" glyph-name="ChevronGalleryLeft" d="M733.257-28.087l-486.327 486.4 491.301 491.374 38.839-38.912-452.535-452.462 447.634-447.488z" />
<glyph unicode="&#xe60f;" glyph-name="EngineSize" d="M847.579 604.672v-93.55h-22.528l-201.070 200.85h-132.023v37.961h150.747v54.857h-356.279v-54.857h150.674v-37.961h-182.491l-93.769-91.136h-58.734v-138.313h-37.961v150.747h-54.857v-356.206h54.857v150.674h37.961v-138.679h71.68l171.081-172.178h481.426v101.083h21.285v-101.083h167.131v487.863h-167.131zM959.854 171.666h-57.417v101.083h-130.999v-101.083h-403.749l-171.081 172.178h-39.643v222.135h26.185l93.769 91.136h324.462l200.997-200.923h100.133v93.623h57.417v-378.149z" />
<glyph unicode="&#xe610;" glyph-name="QuickView" d="M511.927 102.4c-257.755 0-490.642 313.271-500.443 326.656l-12.581 17.115 13.531 16.457c10.679 12.946 262.949 317.001 499.493 317.001s488.887-304.055 499.493-317.001l13.531-16.457-12.581-17.115c-9.801-13.385-242.688-326.656-500.443-326.656zM69.047 444.343c51.639-64.293 245.102-287.086 442.88-287.086 198.071 0 391.314 222.866 442.88 287.086-55.369 62.464-261.486 280.503-442.88 280.503s-387.511-218.039-442.88-280.503zM506.88 307.931c-73.362 0-133.047 59.685-133.047 133.047s59.758 133.12 133.047 133.12 133.12-59.758 133.12-133.12-59.758-133.047-133.12-133.047zM506.88 519.241c-43.154 0-78.19-35.035-78.19-78.19s35.109-78.263 78.19-78.263 78.263 35.109 78.263 78.19-35.109 78.263-78.263 78.263z" />
<glyph unicode="&#xe611;" glyph-name="ListView" d="M292.571 833.39h658.286v-54.857h-658.286v54.857zM292.571 501.614h658.286v-54.857h-658.286v54.857zM292.571 169.838h658.286v-54.857h-658.286v54.857zM73.143 833.39h59.392v-54.857h-59.392v54.857zM73.143 501.614h59.392v-54.857h-59.392v54.857zM73.143 169.838h59.392v-54.857h-59.392v54.857z" />
<glyph unicode="&#xe612;" glyph-name="PlayerControlVolume" d="M6.583 713.143v-486.254h186.807l303.104-279.552v1026.926l-303.104-261.12h-186.807zM228.718 673.646l212.187 181.175v-782.19l-210.798 194.706-15.287 15.287h-152.576v378.587h151.479l14.994 12.434zM771.218 467.675c0-93.403-29.696-163.621-78.482-224.695l39.57-39.57c59.026 71.899 93.989 154.99 93.989 264.265 0 105.106-32.402 185.198-87.479 255.269l-39.57-39.643c44.91-59.099 71.973-126.318 71.973-215.625zM919.698 467.675c0-124.562-50.761-237.349-132.535-319.122l38.766-38.766c91.794 91.721 148.846 218.185 148.846 357.888 0 135.753-53.833 258.999-141.093 350.062l-38.766-38.766c77.239-81.042 124.782-190.683 124.782-311.296z" />
<glyph unicode="&#xe613;" glyph-name="PlayerControlPlay" d="M512-39.79c-275.968 0-500.59 224.549-500.59 500.59s224.622 500.59 500.59 500.59 500.59-224.622 500.59-500.59-224.622-500.59-500.59-500.59zM512 906.533c-245.76 0-445.733-199.973-445.733-445.733s199.973-445.733 445.733-445.733 445.733 199.973 445.733 445.733-199.973 445.733-445.733 445.733zM399.067 237.934v425.911l311.369-212.261-311.369-213.65zM453.925 560.055v-217.966l159.378 109.349-159.378 108.617z" />
<glyph unicode="&#xe614;" glyph-name="PlayerControlPause" d="M475.355 97.499h-172.544v722.651h172.544v-722.651zM357.669 152.357h62.83v612.937h-62.83v-612.937zM721.189 97.499h-172.544v722.651h172.544v-722.651zM603.502 152.357h62.83v612.937h-62.83v-612.937z" />
<glyph unicode="&#xe615;" glyph-name="PlayerControlNoVolume" d="M438.857 854.601v-779.995l-226.304 207.872h-151.113v377.563h150.016l15.433 13.166 211.968 181.394zM493.714 973.751l-302.519-258.853h-184.613v-487.278h184.613l302.519-277.87v1024zM970.313 601.161l-38.912 38.839-139.41-139.41-139.41 139.41-38.839-38.839 139.41-139.41-139.41-139.483 38.839-38.839 139.41 139.41 139.41-139.41 38.912 38.839-139.483 139.483z" />
<glyph unicode="&#xe616;" glyph-name="PlayerControlFullscreen" d="M37.885 894.709l41.375 41.375 279.284-279.284-41.375-41.375-279.284 279.284zM661.022 651.513l284.456 284.456 41.375-41.375-284.456-284.456-41.375 41.375zM663.433 261.206l41.375 41.375 289.628-289.628-41.375-41.375-289.628 289.628zM32.905 20.084l289.915 289.382 41.34-41.416-289.915-289.382-41.34 41.416zM80.457 680.229h-58.514v270.629h270.629v-58.514h-212.114zM1002.057 680.229h-58.514v212.114h-212.114v58.514h270.629zM1002.057-29.257h-270.629v58.514h212.114v212.114h58.514zM292.571-29.257h-270.629v270.629h58.514v-212.114h212.114z" />
<glyph unicode="&#xe617;" glyph-name="Play" d="M512 964.86c-277.977 0-504.123-226.115-504.123-504.060s226.146-504.044 504.123-504.044c277.977 0 504.123 226.115 504.123 504.044s-226.146 504.060-504.123 504.060zM512-7.798c-258.426 0-468.677 210.219-468.677 468.598 0 258.395 210.251 468.614 468.677 468.614s468.677-210.219 468.677-468.614c0-258.379-210.251-468.598-468.677-468.598zM406.323 251.636l291.131 199.712-291.131 198.325v-398.037zM441.769 582.624l192.89-131.387-192.89-132.317v263.704z" />
<glyph unicode="&#xe618;" glyph-name="Pan" d="M512 665.6c109.714 0 204.8-95.086 204.8-204.8s-87.771-204.8-204.8-204.8-204.8 95.086-204.8 204.8 95.086 204.8 204.8 204.8zM512 716.8c-138.971 0-256-109.714-256-256s117.029-256 256-256c146.286 0 256 117.029 256 256s-109.714 256-256 256v0zM153.6 314.514l-153.6 146.286 153.6 153.6 36.571-43.886-109.714-109.714 109.714-109.714zM870.4 314.514l-36.571 36.571 109.714 109.714-109.714 109.714 36.571 43.886 153.6-153.6z" />
<glyph unicode="&#xe619;" glyph-name="PaginationOn" d="M770.999 460.8c0-143.041-115.958-258.999-258.999-258.999s-258.999 115.958-258.999 258.999c0 143.041 115.958 258.999 258.999 258.999s258.999-115.958 258.999-258.999z" />
<glyph unicode="&#xe61a;" glyph-name="PaginationOff" d="M512 664.942c112.567 0 204.142-91.575 204.142-204.142s-91.575-204.142-204.142-204.142-204.142 91.575-204.142 204.142 91.575 204.142 204.142 204.142zM512 719.799c-143.067 0-258.999-115.931-258.999-258.999s115.931-258.999 258.999-258.999 258.999 115.931 258.999 258.999-115.931 258.999-258.999 258.999v0z" />
<glyph unicode="&#xe61b;" glyph-name="Offers" d="M379.904-38.766l-371.931 371.858 629.541 627.273h378.587v-363.008l-636.197-636.123zM85.577 333.093l294.254-294.254 581.339 581.339v285.33h-300.983l-574.61-572.416zM812.983 669.257c-0.073 0-0.073 0 0 0-23.479 0-45.568 9.143-62.098 25.746-34.231 34.158-34.231 89.893 0 124.050 16.53 16.603 38.546 25.673 62.025 25.746 0 0 0 0 0.073 0 23.406 0 45.422-9.143 62.098-25.746 34.231-34.231 34.231-89.893 0-124.123-16.677-16.53-38.693-25.673-62.098-25.673zM812.983 789.943v0c-8.777 0-17.042-3.438-23.186-9.582-6.29-6.217-9.728-14.555-9.728-23.333s3.438-17.042 9.728-23.259c6.144-6.217 14.409-9.655 23.113-9.655h0.073c8.777 0 16.969 3.438 23.186 9.655 6.29 6.217 9.728 14.482 9.728 23.259s-3.438 17.042-9.728 23.259c-6.217 6.217-14.409 9.655-23.186 9.655z" />
<glyph unicode="&#xe61c;" glyph-name="MPG" d="M512-37.010c-187.246 0-339.529 152.283-339.529 339.529 0 59.099 15.433 117.175 44.544 168.155l296.155 488.009 292.791-486.181c29.842-51.639 45.495-110.299 45.495-169.911 0.073-187.319-152.21-339.602-339.456-339.602zM513.097 852.626l-248.832-409.893c-23.991-42.057-36.937-90.77-36.937-140.288 0-156.965 127.707-284.672 284.672-284.672s284.672 127.707 284.672 284.672c0 50.103-13.093 99.109-37.888 142.043l-245.687 408.137z" />
<glyph unicode="&#xe61d;" glyph-name="LoadingSpinner" d="M484.571 960.585h54.857v-249.929h-54.857v249.929zM669.437 656.848l176.575 176.9 38.88-38.808-176.575-176.9-38.88 38.808zM761.929 488.229h249.856v-54.857h-249.856v54.857zM669.247 264.679l38.841 38.841 176.725-176.725-38.841-38.841-176.725 176.725zM484.571 210.871h54.857v-249.929h-54.857v249.929zM139.162 126.858l176.725 176.725 38.841-38.841-176.725-176.725-38.841 38.841zM12.215 488.229h249.856v-54.857h-249.856v54.857zM139.195 794.812l38.841 38.841 176.725-176.725-38.841-38.841-176.725 176.725z" />
<glyph unicode="&#xe61e;" glyph-name="MPH" d="M512 964.242c-277.577 0-503.442-225.865-503.442-503.442s225.865-503.442 503.442-503.442c277.577 0 503.442 225.865 503.442 503.442s-225.865 503.442-503.442 503.442zM215.040 125.44l53.979 53.979-38.766 38.839-53.979-53.979c-64.366 72.777-105.326 166.4-111.47 269.531h86.455v54.857h-86.455c6.363 102.985 47.397 196.462 111.909 269.093l57.856-58.002 38.839 38.693-57.929 58.075c72.704 64.293 166.181 105.179 269.093 111.47v-80.384h54.857v80.384c102.985-6.29 196.462-47.25 269.166-111.616l-58.149-58.295 38.839-38.693 58.075 58.222c64.439-72.777 105.472-166.327 111.762-269.458h-86.528v-54.857h86.528c-6.29-102.985-47.25-196.535-111.689-269.312l-53.906 53.906-38.839-38.839 53.833-53.833c-79.141-70.071-182.857-113.006-296.667-113.006-113.737 0-217.6 43.008-296.814 113.225zM666.917 654.775l-111.909-112.201c-13.019 6.949-27.209 11.922-43.008 11.922-51.493 0-93.33-41.838-93.33-93.257 0-51.493 41.838-93.33 93.33-93.33 51.419 0 93.257 41.838 93.257 93.33 0 15.579-4.754 29.623-11.557 42.496l112.128 112.274-38.912 38.766zM512 422.693c-21.211 0-38.473 17.262-38.473 38.473s17.262 38.473 38.473 38.473 38.4-17.189 38.4-38.4-17.189-38.546-38.4-38.546z" />
<glyph unicode="&#xe61f;" glyph-name="ImageGalleryOne" d="M939.886 887.735v-855.771h-855.771v855.771h855.771zM994.743 942.592h-965.486v-965.486h965.486v965.486z" />
<glyph unicode="&#xe620;" glyph-name="ImageGalleryAll" d="M426.935 887.735v-341.87h-341.87v341.87h341.87zM481.792 942.592h-451.584v-451.584h451.584v451.584zM938.935 887.735v-341.87h-341.87v341.87h341.87zM993.792 942.592h-451.584v-451.584h451.584v451.584zM426.935 373.833v-341.87h-341.87v341.87h341.87zM481.792 428.69h-451.584v-451.584h451.584v451.584zM938.935 373.833v-341.87h-341.87v341.87h341.87zM993.792 428.69h-451.584v-451.584h451.584v451.584z" />
<glyph unicode="&#xe621;" glyph-name="GooglePlus" d="M306.469 241.371c26.682-10.605 57.596-16.775 89.946-16.823 1.069-0.017 2.308-0.026 3.549-0.026 74.918 0 141.667 34.981 184.803 89.5 29.683 43.554 47.169 96.708 47.169 153.946 0 12.17-0.791 24.156-2.323 35.909l0.148 24.215h-264.046v-26.331c0-24.869 0-49.737 0-73.143v-28.526h114.834c-12.040-15.725-28.536-27.491-47.596-33.462-11.345-4.105-23.662-6.374-36.509-6.374-25.933 0-49.708 9.244-68.207 24.617l0.175-0.141c-23.849 19.863-38.918 49.567-38.918 82.79 0 2.009 0.055 4.006 0.164 5.988 0.11 35.028 17.228 66.309 43.582 85.827l0.291 0.206c18.341 12.090 40.837 19.286 65.014 19.286 27.723 0 53.237-9.463 73.486-25.334l17.294-10.775 16.091 14.629c20.241 18.982 39.108 38.544 56.961 59.015l22.765 22.174-25.6 18.286c-43.235 37.279-99.954 59.984-161.976 59.984-0.655 0-1.31-0.003-1.964-0.008-0.852 0.014-1.976 0.021-3.102 0.021-132.024 0-239.806-103.797-246.192-234.237-0.143-3.46-0.213-6.849-0.213-10.254 0-105.202 65.906-195.011 158.682-230.392zM204.069 479.086v0c2.223 50.723 24.538 95.834 59.126 127.89 32.665 31.836 76.875 51.73 125.725 52.769l7.514 0.003c0.739 0.011 1.612 0.017 2.486 0.017 38.133 0 73.517-11.766 102.72-31.867l-18.898-18.619c-25.393 16.441-56.433 26.214-89.755 26.214-34.73 0-66.98-10.616-93.682-28.781-39.456-29.264-65.306-76.089-65.979-128.984-0.212-3.203-0.332-6.818-0.332-10.461 0-50.54 23.089-95.686 59.295-125.467 27.791-23.141 63.504-37.052 102.467-37.052 19.766 0 38.696 3.58 56.177 10.127 47.941 15.231 85.187 54.656 97.426 103.957l6.794 33.189h-131.657q0 10.24 0 20.48h155.794c0.187-3.283 0.293-7.125 0.293-10.991 0-43.122-13.233-83.153-35.859-116.254l0.457 0.709c-34.874-43.243-87.852-70.674-147.237-70.674-26.046 0-50.859 5.277-73.43 14.819-70.278 28.897-119.723 98.001-119.723 178.652 0 3.631 0.1 7.239 0.298 10.821zM741.669 438.857h-62.171v62.903h62.171c0 21.211 0 43.886 0 62.903h62.903c0-19.749 0-42.423 0-62.903h62.903v-62.903h-62.903c0-21.211 0-43.154 0-62.903h-62.171c-0.731 19.017 0 41.691-0.731 62.171zM0 972.8v-1024h1024v1024h-1024zM970.606 2.194h-917.211v917.211h917.211v-917.211z" />
<glyph unicode="&#xe622;" glyph-name="Facebook" d="M417.646 118.491h167.497v286.72h95.817l21.211 169.691h-117.029v41.691c-0.241 1.576-0.378 3.394-0.378 5.244 0 6.097 1.492 11.846 4.131 16.901 5.623 3.207 12.517 5.222 19.88 5.222 1.725 0 3.423-0.111 5.089-0.325l87.574 0.021v152.869h-24.137c-25.234 2.808-54.491 4.41-84.122 4.41-2.055 0-4.108-0.008-6.159-0.023-1.734 0.094-4.137 0.147-6.553 0.147-90.082 0-163.109-73.026-163.109-163.109 0-3.396 0.104-6.768 0.308-10.113l-0.022-52.935h-97.28v-169.691h97.28v-285.989zM373.76 460.8v55.589h97.28v111.909c-0.471 3.793-0.74 8.183-0.74 12.635 0 59.786 48.466 108.251 108.251 108.251 2.319 0 4.621-0.073 6.903-0.217 23.094 0.016 43.574 0.016 58.202 0.016v-49.737h-28.526c-2.623 0.333-5.658 0.524-8.737 0.524-40.396 0-73.143-32.747-73.143-73.143 0-3.538 0.251-7.018 0.737-10.423l-0.046-99.815h106.057l-7.314-55.589h-98.743v-285.989h-62.903v285.989h-97.28zM0 972.8v-1024h1024v1024h-1024zM970.606 2.194h-917.211v917.211h917.211v-917.211z" />
<glyph unicode="&#xe623;" glyph-name="ExternalLink" d="M472.795 862.501v-542.574h54.857v544.549l116.37-116.297 38.766 38.766-181.175 181.102-19.749-19.529-1.024 1.024-162.597-162.597 38.619-38.912zM616.009 660.626v-54.857h222.647v-597.358h-653.312v597.358h198.144v54.857h-253.001v-707.072h763.026v707.072z" />
<glyph unicode="&#xe624;" glyph-name="Emissions" d="M512 161.207c-122.002 0-202.825 37.376-240.421 110.958-107.666 211.090 204.8 646.144 218.185 664.576l22.235 30.574 22.235-30.574c13.385-18.432 325.851-453.486 218.112-664.576-37.449-73.582-118.418-110.958-240.347-110.958zM512 872.741c-93.769-138.386-262.217-437.029-191.561-575.707 27.429-53.76 91.941-80.969 191.561-80.969s164.059 27.209 191.488 80.969c70.729 138.606-97.719 437.321-191.488 575.707zM484.571 554.642h54.857v-600.357h-54.857v600.357z" />
<glyph unicode="&#xe625;" glyph-name="Horsepower" d="M571.904 783.726l263.022-263.022-160.11-160.037c-42.277 66.414-123.977 169.399-265.070 260.901l162.158 162.158zM571.904 861.33l-250.587-250.587c260.974-144.677 340.626-340.626 340.626-340.626l250.587 250.587-340.626 340.626zM623.078 912.524l38.841 38.841 340.572-340.572-38.841-38.841-340.572 340.572zM242.981-29.769c-59.173 0-114.761 23.040-156.672 64.878-86.455 86.455-86.455 226.962-0.073 313.344 51.931 51.785 127.195 74.533 199.095 60.562l105.033 105.106 175.835-175.835-105.618-105.691c13.239-71.461-9.362-145.847-60.928-197.413-41.911-41.911-97.573-64.951-156.672-64.951zM242.761 358.327c-44.471 0-86.309-17.262-117.614-48.713-65.024-64.951-65.024-170.715 0-235.666 62.976-62.976 172.763-62.976 235.666 0 41.618 41.545 58.222 103.058 43.227 160.329l-4.096 15.214 88.649 88.722-98.304 98.304-88.21-88.283-15.36 4.169c-14.263 3.877-29.111 5.925-43.959 5.925zM242.688 114.469c-20.773 0-40.229 8.046-54.93 22.747-14.629 14.629-22.747 34.158-22.747 54.93 0 20.699 8.046 40.229 22.821 54.857 29.038 29.184 80.384 29.403 109.714-0.073 14.629-14.629 22.747-34.085 22.747-54.857 0-20.699-8.046-40.155-22.747-54.857s-34.158-22.747-54.857-22.747zM242.688 214.821c-6.071 0-11.776-2.341-16.091-6.656-4.389-4.389-6.729-10.094-6.729-16.091 0-6.071 2.341-11.776 6.656-16.091 8.631-8.558 23.479-8.631 32.11 0 4.315 4.315 6.656 9.947 6.729 16.018 0 6.144-2.414 11.776-6.729 16.091-4.242 4.315-9.947 6.729-15.945 6.729z" />
<glyph unicode="&#xe626;" glyph-name="Contact" d="M0 844.8v-768h1024v768h-1024zM928.914 793.6l-416.914-416.914-423.643 416.914c0 0 840.558 0 840.558 0zM58.514 135.314v615.058l453.486-446.83 453.486 453.486v-621.714h-906.971z" />
<glyph unicode="&#xe627;" glyph-name="Seat" d="M615.205-25.454l-407.186 1.902c-3.218 1.39-79.945 33.134-79.945 134.144v13.751c-0.146 74.679-0.219 115.858 53.687 126.025l7.68 1.536c22.674 4.681 69.778 14.409 149.797 14.409 72.192 0 155.794-7.753 248.905-23.186 9.509 101.961 50.469 394.386 207.433 394.386 37.376 0 63.195-9.509 79.287-28.306 23.771-27.867 17.627-66.779 15.653-79.579-6.144-39.205-64.731-291.401-90.331-381.074-28.306-99.255-107.886-174.007-184.978-174.007zM224.475 29.403h390.729c52.663 0 110.738 59.026 132.242 134.217 25.234 88.43 82.871 336.238 88.942 374.491 2.706 17.481 1.609 29.769-3.218 35.328-4.974 5.925-17.408 9.143-35.035 9.143-110.738 0-151.698-276.407-157.55-373.321l-1.829-30.793-30.354 5.413c-101.961 18.286-192.512 27.502-269.093 27.502-74.459 0-116.224-8.558-138.679-13.239l-8.631-1.682c-9.143-7.461-9.070-38.766-8.997-72.046v-13.824c-0.073-53.029 30.501-74.971 41.472-81.189zM801.938 676.498c-86.747 0-94.866 77.531-101.449 139.849l-2.414 22.235c-4.389 36.352 7.607 59.392 18.432 72.411 23.918 28.818 60.123 31.89 64.219 32.037 0 0 0.073 0 0.146 0 85.211 0 91.721-45.495 91.721-59.392 0-12.434 11.118-72.119 19.237-103.058 9.728-37.376-0.219-60.562-10.24-73.509-15.726-20.261-42.569-30.574-79.653-30.574zM782.409 888.32c-2.633-0.366-16.53-3.438-23.991-12.654-5.486-6.802-7.534-17.042-5.925-30.501l2.56-23.040c7.534-71.387 14.117-90.697 46.885-90.697 18.213 0 31.817 3.511 36.279 9.289 3.438 4.535 3.657 13.97 0.512 26.112-7.168 27.282-20.846 95.086-20.992 116.517-0.073 0.512-8.558 4.974-35.328 4.974z" />
<glyph unicode="&#xe628;" glyph-name="ChevronGalleryRight" d="M285.769-28.087l-38.839 38.912 452.535 452.462-447.561 447.488 38.912 38.912 486.254-486.4z" />
<glyph unicode="&#xe629;" glyph-name="Capacity" d="M787.602 769.902l0.366-0.146-127.195 135.241c-7.022 7.68-18.432 12.946-28.891 12.946h-239.762c-10.533 0-21.87-4.974-28.672-12.434l-127.707-135.607h-227.621v-766.245h1007.762v766.245h-228.279zM398.848 860.818h226.304l87.771-90.917h-401.774l87.698 90.917zM961.317 60.782h-898.633v651.995h898.706v-651.995z" />
<glyph unicode="&#xe62a;" glyph-name="World" d="M512 961.317c-275.968 0-500.517-224.549-500.517-500.517s224.549-500.517 500.517-500.517 500.517 224.549 500.517 500.517-224.549 500.517-500.517 500.517zM922.843 629.541h-162.962c-19.602 106.35-56.466 190.976-104.448 249.051 120.613-41.033 218.112-130.853 267.41-249.051zM957.806 464.091c0-40.96-5.559-82.725-15.945-118.199h-173.495c4.681 35.474 7.168 77.239 7.168 118.199s-2.487 82.725-7.168 118.199h173.495c10.386-35.474 15.945-77.166 15.945-118.199zM66.194 464.091c0 40.96 5.559 82.725 15.945 118.199h173.495c-4.681-35.474-7.095-77.239-7.095-118.199s2.414-82.725 7.095-118.126h-173.495c-10.386 35.401-15.945 77.166-15.945 118.126zM303.177 464.091c0 40.814 2.706 82.725 7.826 118.199h174.226v-236.325h-174.226c-5.12 35.401-7.826 77.312-7.826 118.126zM544.256 902.656c70.875-21.504 130.706-131.291 159.525-273.115h-159.525v273.115zM485.23 902.656v-273.115h-165.010c28.818 141.824 94.062 251.611 165.010 273.115zM485.23 286.866v-267.922c-70.875 21.504-136.192 126.098-165.010 267.922h165.010zM544.256 18.944v267.922h159.525c-28.818-141.824-88.576-246.418-159.525-267.922zM544.256 345.966v236.325h168.741c5.047-35.474 7.826-77.385 7.826-118.199s-2.706-82.725-7.826-118.126h-168.741zM368.567 878.592c-47.982-58.149-84.846-142.702-104.448-249.051h-162.962c49.298 118.199 146.798 208.018 267.41 249.051zM101.157 286.866h162.962c19.602-106.35 56.466-190.976 104.448-249.051-120.613 41.033-218.112 130.853-267.41 249.051zM655.433 37.815c47.982 58.149 84.846 142.702 104.448 249.051h162.962c-49.298-118.199-146.798-208.018-267.41-249.051z" />
<glyph unicode="&#xe62b;" glyph-name="Brochure" d="M610.085 967.461h-446.464v-1013.394h696.759v763.099l-250.295 250.295zM626.176 873.838l138.752-138.752h-138.752v138.752zM218.478 8.923v903.68h352.841v-232.375h234.203v-671.305h-587.045z" />
<glyph unicode="&#xe62c;" glyph-name="Car" d="M943.543 505.49l-228.352 48.128c-1.829 0.366-4.023 1.243-2.487-0.146-0.951 0.878-112.128 90.624-160.256 106.277-61.952 20.334-223.013 17.481-299.52-47.031l-8.119-6.071c-17.481-13.239-92.891-38.985-183.369-62.098-27.136-5.266-46.665-30.354-46.665-58.295v-119.954c0-35.255 26.624-66.779 61.879-66.779h82.432c17.993-29.184 50.542-48.786 87.552-48.786 36.645 0 68.827 19.602 86.967 48.786h355.035c18.139-29.184 50.322-47.397 86.967-47.397 37.010 0 69.486 20.187 87.552 49.664l88.43 11.995c31.963 10.679 53.394 40.302 53.175 70.51l4.023 35.035c4.535 42.423-24.869 80.384-65.243 86.162zM246.638 306.761c-26.843 0-48.64 21.87-48.64 48.713s21.797 48.713 48.64 48.713 48.64-21.943 48.64-48.713-21.87-48.713-48.64-48.713zM775.534 306.761c-26.843 0-48.64 21.87-48.64 48.713s21.797 48.713 48.64 48.713 48.713-21.87 48.713-48.713-21.87-48.713-48.713-48.713zM955.319 425.253l-4.169-37.815c0-10.313-6.51-19.090-11.483-21.285l-61.659-7.826c-1.536 55.223-46.226 99.621-101.742 99.621-56.466 0-101.742-45.934-101.742-102.473 0-0.146 0 2.414 0 2.414h-326.949c0 0 0-2.56 0-2.414 0 56.539-45.202 103.351-101.669 103.351-56.247 0-101.303-48.421-101.669-100.937h-67.584c-6.29 0-9.362 3.438-9.362 8.411v119.954c0 2.414 1.755 5.12 5.339 5.851 50.103 12.8 170.203 45.422 204.727 71.607l9.070 6.949c59.099 49.81 198.875 54.418 249.344 37.961 31.817-10.313 127.854-83.675 145.408-98.45 7.753-4.681 15.726-7.826 23.333-9.289l229.742-48.347c13.458-1.975 22.528-13.751 21.065-27.282z" />
<glyph unicode="&#xe62d;" glyph-name="Doors" d="M415.671 881.006l-386.194-344.357v-496.055h964.974v840.411h-578.779zM436.443 825.563h502.638v-295.497h-836.242l333.605 295.497zM84.919 96.037v378.587h854.162v-378.587h-854.162zM636.635 377.71h182.345v-53.102h-182.345v53.102z" />
<glyph unicode="&#xe62e;" glyph-name="Compare" d="M1016.613 574.757h-1015.003v54.857h882.395l-218.77 218.258 38.766 38.839zM319.781 34.889l-312.613 311.954h1015.003v-54.857h-882.322l218.77-218.258z" />
<glyph unicode="&#xe62f;" glyph-name="DoubleSlider" d="M512-41.472c-276.919 0-502.272 225.353-502.272 502.272s225.353 502.272 502.272 502.272 502.272-225.353 502.272-502.272-225.353-502.272-502.272-502.272zM512 908.215c-246.711 0-447.415-200.704-447.415-447.415s200.704-447.415 447.415-447.415 447.415 200.704 447.415 447.415-200.704 447.415-447.415 447.415zM361.106 316.782l-143.287 143.36 144.603 144.75 38.839-38.912-105.911-105.838 104.594-104.594zM661.577 316.709l-38.839 38.912 105.911 105.838-104.594 104.594 38.839 38.766 143.287-143.36z" />
<glyph unicode="&#xe630;" glyph-name="SliderArrowR" d="M512-41.472c-276.919 0-502.272 225.353-502.272 502.272s225.353 502.272 502.272 502.272 502.272-225.353 502.272-502.272-225.353-502.272-502.272-502.272zM512 908.215c-246.711 0-447.415-200.704-447.415-447.415s200.704-447.415 447.415-447.415 447.415 200.704 447.415 447.415-200.704 447.415-447.415 447.415zM449.317 249.344l-38.912 38.912 173.641 173.568-171.593 171.52 38.839 38.912 210.359-210.432z" />
<glyph unicode="&#xe631;" glyph-name="SliderArrowL" d="M512-41.472c-276.919 0-502.272 225.353-502.272 502.272s225.353 502.272 502.272 502.272 502.272-225.353 502.272-502.272-225.353-502.272-502.272-502.272zM512 908.215c-246.711 0-447.415-200.704-447.415-447.415s200.704-447.415 447.415-447.415 447.415 200.704 447.415 447.415-200.704 447.415-447.415 447.415zM572.709 249.344l-210.359 210.432 212.334 212.48 38.912-38.912-173.641-173.568 171.593-171.52z" />
<glyph unicode="&#xe632;" glyph-name="Tick" d="M355.035 61.074l-322.414 322.341 38.766 38.839 279.918-279.918 597.943 718.19 42.13-35.035z" />
<glyph unicode="&#xe633;" glyph-name="Reset" d="M515.657-7.314c-109.714 0-219.429 43.886-299.886 124.343s-124.343 182.857-124.343 299.886 43.886 219.429 124.343 299.886c168.229 168.229 431.543 168.229 599.771 0 14.629-14.629 29.257-36.571 43.886-51.2l-43.886-29.257c-14.629 14.629-21.943 29.257-36.571 43.886-146.286 146.286-380.343 146.286-519.314 0-73.143-73.143-109.714-160.914-109.714-263.314s36.571-190.171 109.714-263.314c146.286-146.286 380.343-146.286 519.314 0 58.514 58.514 95.086 131.657 102.4 219.429l51.2-7.314c-14.629-95.086-51.2-182.857-124.343-248.686-73.143-80.457-175.543-124.343-292.571-124.343zM866.743 621.714h-307.2v58.514h256v248.686h51.2z" />
<glyph unicode="&#xe634;" glyph-name="Price" d="M1007.47 721.335v53.321h-365.129c-63.927 46.153-140.727 68.535-223.378 68.535-228.498 0-412.526-190.098-401.92-420.937 9.509-206.117 176.786-373.467 382.903-382.903 89.819-4.169 173.568 20.919 242.322 67.145h365.202v56.832h-297.691c39.863 42.642 70.802 92.379 89.893 149.285h207.799v56.832h-192.951c4.462 21.358 6.729 47.616 6.729 72.85s-2.341 47.982-6.729 72.85h192.951v56.905h-207.799c-19.090 56.832-50.030 106.642-89.893 149.285 0 0 297.691 0 297.691 0zM763.611 415.159c-12.654-169.033-149.138-305.445-318.098-318.098-202.533-15.214-372.224 145.262-372.224 344.649 0 190.61 155.063 345.673 345.673 345.673 199.387-0.073 359.863-169.691 344.649-372.224zM394.679 409.381c0 14.775-2.414 27.648-7.168 45.422h118.857v39.058h-134.437c-6.363 14.19-11.337 26.624-14.921 37.815-3.584 11.118-5.413 23.406-5.413 36.498 0 21.87 8.046 39.424 24.21 52.59 16.091 13.166 36.133 19.749 59.977 19.749 17.92 0 34.67-2.487 50.176-7.461 15.579-5.047 31.525-11.41 47.835-19.383l21.504 48.421c-39.424 20.626-79.872 31.013-121.271 31.013-27.063 0-51.639-5.12-73.801-15.287-22.089-10.094-39.497-24.503-52.224-43.008s-19.090-40.229-19.090-64.951c0-21.943 6.949-47.616 20.919-75.995h-59.758l-11.922-39.131h86.601c5.559-17.774 8.338-31.817 8.338-48.933 0-28.306-8.923-57.71-26.843-89.673h-59.392v-53.321h319.854v53.321h-197.705c17.115 32.037 25.673 64.146 25.673 93.257z" />
<glyph unicode="&#xe635;" glyph-name="AWD" d="M752.128 656.238h11.41c49.518 0 89.819 40.229 89.819 89.746v122.514c0 49.518-40.302 89.746-89.819 89.746h-11.41c-49.518 0-89.746-40.229-89.746-89.746v-33.865h-111.982c-8.558 11.703-21.797 19.822-37.449 19.822s-28.818-8.119-37.376-19.822h-111.982v33.865c0 49.518-40.229 89.746-89.746 89.746h-11.483c-49.518 0-89.746-40.229-89.746-89.746v-122.514c0-49.518 40.229-89.746 89.746-89.746h11.41c49.518 0 89.746 40.229 89.746 89.746v33.792h111.982c2.853-3.877 6.144-7.095 10.021-9.947v-138.313c-27.502-10.971-47.177-37.669-47.177-69.047s19.675-58.075 47.25-69.12v-345.015c-3.877-2.853-7.168-6.144-10.021-10.021h-111.982v33.865c0 49.518-40.229 89.746-89.746 89.746h-11.483c-49.518 0-89.746-40.229-89.746-89.746v-122.587c0-49.518 40.229-89.746 89.746-89.746h11.41c49.518 0 89.746 40.229 89.746 89.746v33.865h111.982c8.631-11.703 21.797-19.749 37.376-19.749s28.818 8.119 37.376 19.749h112.055v-33.865c0-49.518 40.229-89.746 89.746-89.746h11.41c49.518 0 89.819 40.229 89.819 89.746v122.587c0 49.518-40.302 89.746-89.819 89.746h-11.41c-49.518 0-89.746-40.229-89.746-89.746v-33.865h-111.909c-2.853 3.877-6.071 7.168-9.947 10.021v345.015c27.575 10.971 47.177 37.669 47.177 69.12s-19.602 58.075-47.177 69.047v138.313c3.877 2.853 7.095 6.071 9.947 9.947h112.055v-33.792c0-49.518 40.155-89.746 89.673-89.746zM717.312 868.498c0 19.237 15.653 34.889 34.889 34.889h11.41c19.31 0 34.962-15.653 34.962-34.889v-122.514c0-19.237-15.653-34.889-34.962-34.889h-11.41c-19.237 0-34.889 15.653-34.889 34.889v122.514zM273.847 711.095h-11.483c-19.237 0-34.889 15.653-34.889 34.889v122.514c0 19.237 15.653 34.889 34.889 34.889h11.41c19.237 0 34.889-15.653 34.889-34.889v-122.514h0.073c0-19.237-15.653-34.889-34.889-34.889zM273.847 14.775h-11.483c-19.237 0-34.889 15.653-34.889 34.889v122.587c0 19.237 15.653 34.889 34.889 34.889h11.41c19.237 0 34.889-15.653 34.889-34.889v-122.587h0.073c0-19.237-15.653-34.889-34.889-34.889zM717.312 172.251c0 19.237 15.653 34.889 34.889 34.889h11.41c19.31 0 34.962-15.653 34.962-34.889v-122.587c0-19.237-15.653-34.889-34.962-34.889h-11.41c-19.237 0-34.889 15.653-34.889 34.889v122.587zM513.024 542.647c-10.898 0-19.822 8.923-19.822 19.822s8.923 19.749 19.822 19.749c10.898 0 19.749-8.85 19.749-19.749s-8.85-19.822-19.749-19.822z" />
<glyph unicode="&#xe636;" glyph-name="FuelType" d="M277.943 778.24h239.835v-54.857h-239.835v54.857zM804.059 789.211l-23.479-24.357v40.302l110.738 110.592-38.693 38.766-126.903-126.61 0.146-486.693c0-60.635-36.864-80.75-63.781-87.552v709.925h-529.408v-1005.568h529.408v239.616c50.981 8.85 118.638 45.349 118.638 143.506l-0.073 344.795 62.903 65.17-39.497 38.107zM607.232 12.873h-419.694v895.854h419.694v-895.854z" />
<glyph unicode="&#xe637;" glyph-name="Wheel" d="M512 961.243c-275.968 0-500.443-224.549-500.443-500.443 0-275.968 224.549-500.443 500.443-500.443s500.443 224.549 500.443 500.443c0 275.968-224.475 500.443-500.443 500.443zM512 14.994c-245.833 0-445.806 199.973-445.806 445.806s199.973 445.806 445.806 445.806 445.806-199.973 445.806-445.806-199.973-445.806-445.806-445.806zM512 824.466c-200.558 0-363.666-163.109-363.666-363.666s163.109-363.666 363.666-363.666c200.558 0 363.666 163.109 363.666 363.666s-163.109 363.666-363.666 363.666zM575.927 460.8c0-35.255-28.672-63.927-63.927-63.927s-63.927 28.672-63.927 63.927c0 35.255 28.672 63.927 63.927 63.927s63.927-28.672 63.927-63.927zM573.806 561.737c-10.606 6.583-23.479 11.483-35.255 14.482v192.439c70.875-5.705 123.904-31.451 171.081-70.949l-135.826-135.973zM479.451 576.219c-11.849-2.999-21.65-7.899-32.256-14.482l-137.289 135.973c47.104 39.497 110.446 65.243 169.545 70.949v-192.439zM411.063 524.507c-6.583-10.606-11.483-21.504-14.482-33.28h-192.439c5.705 59.099 31.451 122.953 70.949 170.13l135.973-136.85zM396.581 432.128c2.999-11.849 7.899-23.552 14.482-34.231l-135.973-136.265c-39.497 47.104-65.243 111.397-70.949 170.496h192.439zM447.195 359.863c10.606-6.583 20.407-11.483 32.256-14.482v-192.439c-59.099 5.705-122.441 31.451-169.545 70.949l137.289 135.973zM538.551 345.381c11.776 2.999 24.649 7.899 35.255 14.482l135.826-135.973c-47.104-39.497-100.133-65.243-171.081-70.949v192.439zM612.937 397.897c6.583 10.606 11.483 22.382 14.482 34.231h192.439c-5.705-59.099-31.451-123.392-70.949-170.496l-135.973 136.265zM627.419 491.227c-2.999 11.776-7.899 22.674-14.482 33.28l135.973 136.777c39.497-47.104 65.243-111.031 70.949-170.13h-192.439z" />
<glyph unicode="&#xe638;" glyph-name="BurgerStickyNav" d="M51.2 732.16v-2.56h896v2.56c4.315-0.878 8.265-2.56 12.8-2.56 35.401 0 64 28.672 64 64s-28.599 64-64 64c-4.535 0-8.485-1.682-12.8-2.56v2.56h-896v-2.56c-28.965-6.071-51.2-30.574-51.2-61.44s22.235-55.369 51.2-61.44zM51.2 399.36v-2.56h409.6v2.56c29.038 6.144 51.2 30.72 51.2 61.44 0 30.793-22.235 55.223-51.2 61.367v2.633h-409.6v-2.56c-28.965-6.144-51.2-30.574-51.2-61.44 0-30.72 22.235-55.296 51.2-61.44zM960 192c-4.535 0-8.485-1.682-12.8-2.56v2.56h-896v-2.56c-28.965-6.144-51.2-30.647-51.2-61.44s22.235-55.369 51.2-61.44v-2.56h896v2.56c4.315-0.878 8.265-2.56 12.8-2.56 35.401 0 64 28.672 64 64s-28.599 64-64 64zM1005.202 555.154c-25.088 24.137-65.609 24.137-90.697 0l-66.706-63.342-66.779 63.342c-25.088 24.137-65.536 24.137-90.624 0-25.088-24.21-25.088-63.342 0-87.625l108.837-103.351c13.385-12.873 31.086-18.286 48.567-17.408 17.481-0.878 35.109 4.535 48.494 17.408l108.91 103.351c25.088 24.283 25.088 63.415 0 87.625z" />
<glyph unicode="&#xe639;" glyph-name="VideoCarouselLink" d="M510.61-43.52c-276.919 0-502.272 225.353-502.272 502.345 0 276.919 225.353 502.272 502.272 502.272s502.272-225.353 502.272-502.272c0-276.919-225.353-502.345-502.272-502.345zM510.61 906.313c-246.711 0-447.415-200.704-447.415-447.415 0-246.784 200.704-447.488 447.415-447.488s447.415 200.704 447.415 447.488c0 246.711-200.704 447.415-447.415 447.415zM447.854 247.442l-38.839 38.839 173.641 173.568-171.593 171.52 38.766 38.839 210.432-210.359z" />
<glyph unicode="&#xe63b;" glyph-name="Set_as_preferred" d="M512.512-35.986l-444.197 489.618c-39.936 51.2-60.562 110.446-60.562 172.178 0 154.331 125.586 279.918 279.845 279.918 97.499 0 177.225-70.729 225.646-144.384 48.421 73.655 128.146 144.384 225.573 144.384 154.258 0 279.845-125.586 279.845-279.918 0-66.414-24.649-131.365-69.339-182.784l-436.809-479.013zM144.457 450.048l368.055-404.553 395.776 434.103c35.621 41.033 55.515 93.038 55.515 146.286 0 124.050-100.937 225.061-224.987 225.061-85.358 0-162.45-78.629-200.997-156.672l-24.576-49.81-24.576 49.737c-38.546 78.043-115.639 156.672-201.070 156.672-124.050 0-224.987-101.010-224.987-225.061 0-49.445 16.677-96.914 48.128-137.435l34.085-37.23-0.366-1.097z" />
<glyph unicode="&#xe63c;" glyph-name="Information" d="M512 736.256c151.918 0 275.456-123.538 275.456-275.456s-123.538-275.456-275.456-275.456-275.456 123.538-275.456 275.456 123.538 275.456 275.456 275.456zM512 791.113c-182.418 0-330.313-147.895-330.313-330.313s147.895-330.313 330.313-330.313 330.313 147.895 330.313 330.313-147.895 330.313-330.313 330.313v0zM487.497 629.614h49.518v-46.080h-49.518v46.080zM488.96 517.851h46.153v-240.347h-46.153v240.347z" />
<glyph unicode="&#xe63d;" glyph-name="Get_Directions" d="M365.714 329.143h-58.514v197.486h402.286v-58.514h-343.771zM629.029 380.343l-43.886 43.886 80.457 73.143-80.457 73.143 43.886 43.886 109.714-117.029zM512-43.886l-504.686 504.686 504.686 504.686 504.686-504.686-504.686-504.686zM87.771 460.8l424.229-424.229 424.229 424.229-424.229 424.229-424.229-424.229z" />
<glyph unicode="&#xe63e;" glyph-name="Geolocator" d="M892.343 844.8l-248.686-665.6-58.514 314.514-7.314 36.571-36.571 7.314-307.2 58.514 658.286 248.686zM987.429 939.886l-950.857-358.4 497.371-102.4 102.4-497.371 351.086 958.171z" />
<glyph unicode="&#xe63f;" glyph-name="Feedback_Star" d="M826.002-22.382l-314.002 165.083-314.002-165.083 59.904 349.623-253.952 247.662 351.086 51.054 156.965 318.025 156.965-318.098 351.086-51.054-254.025-247.589 59.977-349.623zM512 204.727l241.152-126.757-46.080 268.507 195.145 190.171-269.678 39.131-120.539 244.297-120.539-244.297-269.678-39.205 195.145-190.171-46.080-268.507 241.152 126.83z" />
<glyph unicode="&#xe640;" glyph-name="Call_Us" d="M940.398 166.107l-127.269 117.541c-14.263 17.92-34.889 29.184-57.783 31.744-23.186 2.706-45.495-4.023-63.269-18.286l-47.031-37.376c-58.807-47.177-168.741 89.6-204.727 134.583-8.777 10.971-18.139 22.089-27.502 33.28-36.498 43.301-77.751 92.379-74.459 125.659 0.658 6.875 3.438 17.554 19.31 30.281l64.658 52.224c37.157 29.623 43.227 83.968 15.506 118.345l-110.299 178.469c-14.336 17.993-34.889 29.257-57.783 31.817-22.967 2.56-45.422-3.95-63.342-18.286l-49.957-39.936c-77.97-62.391-107.886-146.944-88.869-251.246 19.968-109.714 93.038-242.249 223.451-405.138 156.745-195.877 299.52-293.23 431.982-293.157 66.926 0 131.291 24.942 193.39 74.606l13.458 10.679c17.92 14.263 29.184 34.889 31.744 57.783 2.414 22.967-4.096 45.495-21.211 66.414zM895.415 84.773l-13.458-10.679c-99.401-79.506-264.485-144.603-548.206 210.066-122.807 153.527-194.267 281.6-212.334 380.709-15.287 84.041 7.314 148.992 69.266 198.51l49.957 39.863c5.559 4.462 12.361 6.802 19.456 6.802 1.17 0 2.341-0.073 3.584-0.219 8.338-0.951 15.799-4.974 19.017-8.777l110.299-178.469c10.752-13.531 8.631-33.28-4.974-44.105l-64.658-52.151c-23.698-19.017-37.010-41.765-39.57-67.73-5.559-56.32 41.472-112.201 86.967-166.327 9.070-10.752 18.139-21.577 26.624-32.183 53.833-67.291 179.639-225.134 281.819-143.141l47.031 37.376c6.51 5.266 15.287 7.607 22.967 6.656 8.338-0.951 15.872-4.974 23.771-14.482l127.269-117.541c5.193-6.51 7.607-14.702 6.656-23.040-0.878-8.485-4.974-15.945-11.483-21.138z" />
<glyph unicode="&#xe641;" glyph-name="SocialPinterest" d="M319.634 364.983c5.041-2.387 10.952-3.781 17.189-3.781s12.148 1.394 17.438 3.887l7.796 5.014-24.869-107.52c-4.985-22.503-7.84-48.349-7.84-74.863 0-6.857 0.191-13.668 0.568-20.431l-0.042 0.939c1.69-24.446 17.796-44.735 39.809-52.533l12.854-0.13c17.593 0.728 32.936 9.746 42.306 23.228l0.117 0.178c16.416 25.459 30.111 54.819 39.58 86.016l18.203 62.464c22.162-14.224 49.208-22.674 78.229-22.674 0.012 0 0.024 0 0.036 0 135.312 0 233.324 123.611 233.324 292.571-2.724 140.090-116.93 252.611-257.417 252.611-4.132 0-8.242-0.097-12.326-0.29-2.797 0.157-6.758 0.235-10.737 0.235-83.344 0-158.767-33.917-213.219-88.701-45.1-47.338-72.916-111.468-73.158-182.093-0.599-5.514-0.941-11.853-0.941-18.272 0-67.023 37.251-125.345 92.178-155.393zM381.806 456.411c-2.572 5.010-5.491 9.329-8.854 13.257l0.076-0.091c-11.912 14.676-19.126 33.587-19.126 54.182 0 1.524 0.039 3.039 0.118 4.543-0.081 1.548-0.121 3.613-0.121 5.687 0 85.235 69.097 154.331 154.331 154.331 1.326 0 2.647-0.017 3.965-0.050 4.245 0.601 9.378 0.942 14.59 0.942 64.633 0 117.029-52.395 117.029-117.029 0-2.131-0.057-4.248-0.169-6.351 2.207-100.644-38.753-178.175-91.416-178.175-0.291-0.009-0.634-0.014-0.978-0.014-10.729 0-20.334 4.813-26.774 12.397-4.074 5.368-6.501 12.095-6.501 19.39 0 3.275 0.489 6.437 1.399 9.414 3.597 17.326 9.449 34.881 14.569 52.435 10.093 26.821 17.114 57.897 19.672 90.228 0.252 3.174 0.352 5.47 0.352 7.79 0 43.627-35.367 78.994-78.994 78.994-0.354 0-0.707-0.002-1.060-0.007-57.526-7.158-101.648-55.792-101.648-114.731 0-4.676 0.278-9.286 0.817-13.817-0.054 0.368-0.054 0.155-0.054-0.058 0-22.606 4.022-44.272 11.388-64.323zM480.549 496.64c-5.12-18.286-10.971-35.84-15.36-56.32-0.935-4.948-1.469-10.64-1.469-16.457s0.535-11.509 1.558-17.030l-7.402 10.813-19.017-70.949s-19.749-89.234-24.869-105.326c-7.844-25.369-18.033-47.424-30.696-67.78 0.538 4.997 0.442 9.427 0.442 13.88 0 21.41 2.227 42.3 6.463 62.451l48.66 210.878v19.749c-6.021 14.188-9.52 30.69-9.52 48.008 0 0.608 0.004 1.215 0.013 1.82-0.557 3.103-0.874 6.781-0.874 10.534 0 29.487 19.606 54.395 46.492 62.4 14.259-0.317 25.278-11.607 25.278-25.47 0-2.080-0.248-4.102-0.716-6.038-3.283-27.807-9.712-53.276-18.986-77.333zM340.114 680.229c44.827 45.281 106.998 73.319 175.717 73.319 3.283 0 6.55-0.064 9.802-0.191 2.434 0.162 5.833 0.246 9.252 0.246 109.441 0 198.761-86.151 203.841-194.335 0.017-141.622-73.126-240.365-178.452-240.365-0.54-0.013-1.177-0.020-1.815-0.020-27.323 0-51.576 13.141-66.784 33.448l-0.156 0.217c16.019-14.52 37.378-23.408 60.812-23.408 0.221 0 0.441 0.001 0.662 0.002 86.275 0 146.252 98.743 146.252 234.057 0.142 2.614 0.223 5.675 0.223 8.754 0 94.93-76.956 171.886-171.886 171.886-5.486 0-10.913-0.257-16.268-0.76-0.199 0.065-1.242 0.073-2.287 0.073-115.936 0-209.92-93.984-209.92-209.92 0-1.551 0.017-3.097 0.050-4.64-0.081-1.504-0.124-3.537-0.124-5.581 0-33.354 11.628-63.991 31.050-88.081l-0.21-12.897c-29.48 25.113-48.056 62.267-48.056 103.761 0 4.156 0.186 8.268 0.551 12.329 0.82 54.802 22.657 104.867 57.845 142.211zM0 972.8v-1024h1024v1024h-1024zM970.606 2.194h-917.211v917.211h917.211v-917.211z" />
<glyph unicode="&#xe642;" glyph-name="SocialFacebook" d="M417.646 118.491h167.497v286.72h95.817l21.211 169.691h-117.029v41.691c-0.241 1.576-0.378 3.394-0.378 5.244 0 6.097 1.492 11.846 4.131 16.901 5.623 3.207 12.516 5.222 19.88 5.222 1.725 0 3.423-0.111 5.089-0.325l87.574 0.021v152.869h-24.137c-25.234 2.808-54.491 4.41-84.122 4.41-2.055 0-4.107-0.008-6.158-0.023-1.735 0.094-4.138 0.147-6.554 0.147-90.082 0-163.109-73.026-163.109-163.109 0-3.396 0.104-6.768 0.308-10.112l-0.022-52.935h-97.28v-169.691h97.28v-285.989zM373.76 460.8v55.589h97.28v111.909c-0.471 3.793-0.74 8.183-0.74 12.635 0 59.786 48.466 108.251 108.251 108.251 2.319 0 4.621-0.073 6.904-0.217 23.094 0.016 43.574 0.016 58.202 0.016v-49.737h-28.526c-2.623 0.333-5.658 0.524-8.737 0.524-40.396 0-73.143-32.747-73.143-73.143 0-3.538 0.251-7.018 0.737-10.422l-0.046-99.816h106.057l-7.314-55.589h-98.743v-285.989h-62.903v285.989h-97.28zM0 972.8v-1024h1024v1024h-1024zM970.606 2.194h-917.211v917.211h917.211v-917.211z" />
<glyph unicode="&#xe643;" glyph-name="SocialTwitter" d="M384.658 145.774c-82.651 0-157.111 20.187-222.135 60.050-10.533 6.437-15.433 19.163-11.995 31.013 3.584 11.922 14.19 19.163 26.843 19.822 39.643 0 76.507 7.241 110.446 23.698-50.907 20.553-88.43 55.223-111.909 103.424-5.193 10.752-2.926 23.625 5.705 31.817 2.999 2.926 6.583 4.974 10.386 6.29-23.625 24.137-38.912 53.321-45.568 87.333-1.755 8.85-2.999 18.286-3.584 28.379-0.658 11.337 5.778 21.943 16.165 26.551 2.267 1.024 4.535 1.682 6.875 2.048-25.161 51.419-25.088 105.765 0.366 162.523 3.877 8.631 11.922 14.702 21.358 15.945 9.655 1.39 18.798-2.341 24.795-9.655 70.29-84.773 152.503-129.39 250.587-135.753 0 1.097 0 2.048 0 3.145-0.585 47.689 16.53 89.161 50.907 122.88 33.353 34.011 77.093 51.346 122.807 50.469 47.689-0.731 85.577-15.214 118.565-46.958 2.999 0.585 5.998 1.17 8.85 1.682l12.654 3.877c17.042 4.974 33.499 9.801 49.737 14.921 11.118 3.438 23.259-0.366 30.281-9.801s7.241-22.162 0.658-31.817c-0.878-1.317-1.755-2.633-2.706-3.877 7.534-0.293 14.702-3.584 19.822-9.509 8.046-9.362 8.85-23.040 1.902-33.28-18.213-26.843-38.839-48.274-61.44-63.707 0.219-6.51 0.366-13.019 0.366-19.675 0-118.857-42.642-221.55-126.757-305.152-77.678-77.678-173.056-120.174-283.502-126.171l-20.48-0.512c0.073 0 0.073 0 0 0zM273.92 215.918c34.523-10.167 71.314-15.287 110.080-15.287l18.798 0.512c97.134 5.266 178.176 41.326 246.93 110.153 73.509 73.070 110.738 162.67 110.738 266.386 0 11.337-0.512 22.235-1.024 33.061-0.366 9.070 3.73 17.847 10.825 23.259-6.51 2.633-11.922 7.753-14.848 14.482-3.511 8.192-2.779 17.481 1.609 24.942-2.633-0.439-5.266-0.805-7.826-1.17-8.265-1.024-16.75 1.755-22.747 7.607 0 0.219-6.217 6.51-6.363 6.583-23.186 23.625-50.907 35.035-83.383 34.45-32.695-0.658-60.855-10.898-84.041-34.45-23.991-23.552-35.255-50.761-34.816-83.749 0-9.289 0.878-17.774 2.56-26.258 1.609-7.973-0.439-16.311-5.559-22.674-6.363-7.753-16.75-10.24-26.624-10.167-109.349 0-204.946 40.229-284.818 119.881-6.217-42.642 9.143-82.213 46.811-121.856 7.534-7.899 9.655-19.383 5.486-29.403-4.169-10.094-13.824-16.603-24.722-16.896-8.192-0.146-16.091 0.293-23.845 1.39 13.97-33.865 43.374-59.173 89.161-76.946 10.386-3.95 17.262-13.824 17.554-24.869 0.219-11.118-6.217-21.285-16.384-25.746-11.63-5.12-23.333-8.631-34.889-10.459 24.21-20.992 56.101-34.597 96.11-41.253 10.679-1.755 19.383-9.728 22.089-20.114 2.706-10.533-0.951-21.577-9.435-28.379-30.135-24.137-62.757-41.838-97.426-53.029zM170.277 539.136v0zM969.728 918.528v-915.456h-915.456v915.456h915.456zM1024.585 973.385h-1025.17v-1025.17h1025.17v1025.17z" />
<glyph unicode="&#xe644;" glyph-name="SocialInstagram" d="M965.486 914.286v-914.286h-914.286v914.286h914.286zM1024 972.8h-1024v-1024h1024v1024zM742.4 793.6c51.2 0 87.771-43.886 87.771-87.771v-475.429c0-51.2-43.886-87.771-87.771-87.771h-460.8c-51.2 0-87.771 43.886-87.771 87.771v475.429c0 51.2 43.886 87.771 87.771 87.771h460.8zM742.4 844.8h-460.8c-80.457 0-146.286-65.829-146.286-146.286v-475.429c0-80.457 65.829-146.286 146.286-146.286h460.8c80.457 0 146.286 65.829 146.286 146.286v475.429c0 80.457-65.829 146.286-146.286 146.286v0zM515.657 201.143c-146.286 0-263.314 117.029-263.314 263.314s117.029 263.314 263.314 263.314 263.314-117.029 263.314-263.314-117.029-263.314-263.314-263.314zM515.657 669.257c-117.029 0-204.8-95.086-204.8-204.8s95.086-204.8 204.8-204.8 204.8 95.086 204.8 204.8-87.771 204.8-204.8 204.8zM515.657 303.543c-87.771 0-160.914 73.143-160.914 160.914s73.143 160.914 160.914 160.914 160.914-73.143 160.914-160.914-73.143-160.914-160.914-160.914zM515.657 566.857c-58.514 0-102.4-43.886-102.4-102.4s43.886-102.4 102.4-102.4c58.514 0 102.4 43.886 102.4 102.4s-43.886 102.4-102.4 102.4zM786.286 713.143c0-12.119-9.824-21.943-21.943-21.943s-21.943 9.824-21.943 21.943c0 12.119 9.824 21.943 21.943 21.943s21.943-9.824 21.943-21.943z" />
<glyph unicode="&#xe645;" glyph-name="SocialYouTube" d="M980.114 921.6v-914.286h-921.6v914.286h921.6zM1031.314 972.8h-1024v-1024h1024v1024zM519.314 204.8v0c-7.314 0-175.543 0-234.057 7.314h-7.314c-21.943 0-51.2 7.314-80.457 36.571-21.943 21.943-36.571 73.143-36.571 80.457 0 0-7.314 58.514-7.314 117.029v51.2c0 58.514 7.314 109.714 7.314 117.029s7.314 58.514 36.571 80.457c29.257 29.257 65.829 36.571 80.457 36.571 95.086 7.314 234.057 7.314 241.371 7.314s146.286 0 241.371-7.314c21.943 0 58.514-7.314 87.771-36.571 21.943-21.943 36.571-73.143 36.571-80.457 0 0 7.314-58.514 7.314-117.029v-51.2c0-58.514-7.314-109.714-7.314-117.029s-7.314-58.514-36.571-80.457c-29.257-29.257-65.829-36.571-80.457-36.571-102.4-7.314-241.371-7.314-248.686-7.314zM212.114 607.086c0 0-7.314-51.2-7.314-109.714v-51.2c0-51.2 7.314-109.714 7.314-109.714 0-14.629 7.314-43.886 21.943-51.2 14.629-14.629 36.571-14.629 51.2-21.943 7.314 0 7.314 0 14.629 0 51.2-7.314 219.429-7.314 226.743-7.314s146.286 0 234.057 7.314c14.629 0 36.571 0 51.2 21.943 7.314 7.314 14.629 36.571 21.943 51.2v0c0 0 7.314 51.2 7.314 109.714v51.2c0 51.2-7.314 109.714-7.314 109.714 0 14.629-7.314 43.886-21.943 51.2-21.943 14.629-43.886 21.943-51.2 21.943-102.4 7.314-241.371 7.314-241.371 7.314s-146.286 0-234.057-7.314c-14.629 0-36.571 0-51.2-21.943-14.629-7.314-21.943-36.571-21.943-51.2zM424.229 343.771v277.943l270.629-138.971-270.629-138.971zM475.429 533.943v-102.4l95.086 51.2-95.086 51.2z" />
<glyph unicode="&#xe646;" glyph-name="SocialGooglePlus" d="M306.469 241.371c26.682-10.605 57.596-16.775 89.946-16.823 1.069-0.017 2.308-0.026 3.549-0.026 74.918 0 141.667 34.98 184.803 89.499 29.683 43.554 47.169 96.708 47.169 153.946 0 12.17-0.791 24.156-2.323 35.909l0.148 24.215h-264.046v-26.331c0-24.869 0-49.737 0-73.143v-28.526h114.834c-12.040-15.725-28.536-27.491-47.595-33.462-11.345-4.105-23.662-6.374-36.509-6.374-25.933 0-49.708 9.244-68.207 24.617l0.175-0.141c-23.849 19.863-38.918 49.567-38.918 82.79 0 2.009 0.055 4.006 0.164 5.988 0.11 35.029 17.228 66.309 43.583 85.827l0.291 0.206c18.341 12.090 40.837 19.286 65.014 19.286 27.723 0 53.237-9.463 73.486-25.334l17.294-10.775 16.091 14.629c20.241 18.982 39.108 38.544 56.961 59.015l22.765 22.174-25.6 18.286c-43.235 37.279-99.954 59.984-161.976 59.984-0.655 0-1.31-0.003-1.964-0.008-0.852 0.014-1.976 0.021-3.102 0.021-132.025 0-239.806-103.797-246.192-234.238-0.143-3.46-0.213-6.849-0.213-10.254 0-105.202 65.906-195.011 158.682-230.392zM204.069 479.086v0c2.223 50.723 24.538 95.834 59.126 127.891 32.665 31.836 76.875 51.73 125.725 52.769l7.514 0.003c0.739 0.011 1.612 0.017 2.486 0.017 38.133 0 73.517-11.766 102.72-31.867l-18.898-18.619c-25.393 16.441-56.433 26.214-89.755 26.214-34.73 0-66.98-10.616-93.682-28.78-39.456-29.264-65.306-76.089-65.979-128.984-0.212-3.203-0.332-6.818-0.332-10.461 0-50.54 23.089-95.686 59.295-125.467 27.791-23.141 63.504-37.052 102.467-37.052 19.766 0 38.696 3.58 56.177 10.127 47.941 15.231 85.187 54.656 97.426 103.957l6.794 33.189h-131.657q0 10.24 0 20.48h155.794c0.187-3.284 0.293-7.125 0.293-10.991 0-43.122-13.233-83.153-35.859-116.254l0.457 0.709c-34.874-43.243-87.852-70.674-147.237-70.674-26.046 0-50.859 5.277-73.43 14.819-70.278 28.897-119.723 98.001-119.723 178.652 0 3.631 0.1 7.239 0.298 10.821zM741.669 438.857h-62.171v62.903h62.171c0 21.211 0 43.886 0 62.903h62.903c0-19.749 0-42.423 0-62.903h62.903v-62.903h-62.903c0-21.211 0-43.154 0-62.903h-62.171c-0.731 19.017 0 41.691-0.731 62.171zM0 972.8v-1024h1024v1024h-1024zM970.606 2.194h-917.211v917.211h917.211v-917.211z" />
<glyph unicode="&#xe647;" glyph-name="INF_360" d="M507.026 662.967c112.567 0 204.142-91.575 204.142-204.142s-91.575-204.142-204.142-204.142c-112.567 0-204.142 91.575-204.142 204.142s91.575 204.142 204.142 204.142zM507.026 717.824c-143.067 0-258.999-115.931-258.999-258.999s115.931-258.999 258.999-258.999 258.999 115.931 258.999 258.999-116.005 258.999-258.999 258.999v0zM143.653 312.027l-148.699 148.773 148.699 148.773 38.839-38.839-110.007-109.934 110.007-109.934zM880.347 312.027l-38.839 38.839 110.007 109.934-110.007 109.934 38.839 38.839 148.699-148.773zM621.934 790.309l-109.934 110.007-109.934-110.007-38.839 38.839 148.773 148.699 148.773-148.699zM512-56.247l-148.773 148.699 38.839 38.839 109.934-110.007 109.934 110.007 38.839-38.839z" />
<glyph unicode="&#xe648;" glyph-name="CheckBox_Selected" d="M965.486 914.286v-914.286h-906.971v914.286h906.971zM1024 972.8h-1024v-1024h1024v1024zM420.571 223.086l-182.857 190.171 36.571 36.571 146.286-146.286 321.829 394.971 43.886-36.571z" />
<glyph unicode="&#xe649;" glyph-name="CheckBox" d="M965.486 914.286v-914.286h-906.971v914.286h906.971zM1024 972.8h-1024v-1024h1024v1024z" />
<glyph unicode="&#xe64a;" glyph-name="Informationbig" d="M510.61 900.389c242.395 0 439.589-197.193 439.589-439.589s-197.193-439.589-439.589-439.589-439.662 197.193-439.662 439.589 197.266 439.589 439.662 439.589zM510.61 955.246c-273.115 0-494.519-221.33-494.519-494.446s221.403-494.446 494.446-494.446 494.446 221.403 494.446 494.446-221.33 494.446-494.373 494.446v0zM473.893 713.509h74.167v-68.974h-74.167v68.974zM476.087 546.158h68.974v-359.79h-68.974v359.79z" />
<glyph unicode="&#xe64b;" glyph-name="cylinder" d="M514.194 73.143c-73.143 0-138.971 29.257-190.171 80.457-102.4 102.4-102.4 277.943 0 380.343 51.2 51.2 117.029 80.457 190.171 80.457s138.971-29.257 190.171-80.457 80.457-117.029 80.457-190.171-29.257-138.971-80.457-190.171-117.029-80.457-190.171-80.457zM514.194 555.886c-58.514 0-109.714-21.943-153.6-65.829-80.457-80.457-80.457-219.429 0-299.886s219.429-80.457 299.886 0c43.886 43.886 65.829 95.086 65.829 153.6s-21.943 109.714-65.829 153.6c-36.571 36.571-87.771 58.514-146.286 58.514zM751.681 807.034l41.375 41.375 227.565-227.565-41.375-41.375-227.565 227.565zM685.808 741.192l41.375 41.375 227.565-227.565-41.375-41.375-227.565 227.565zM619.995 675.292l41.375 41.375 227.565-227.565-41.375-41.375-227.565 227.565zM594.902 584.146l77.579 77.579 41.375-41.375-77.579-77.579-41.375 41.375zM719.358 467.074l77.579 77.579 41.375-41.375-77.579-77.579-41.375 41.375zM3.383 618.75l227.565 227.565 41.375-41.375-227.565-227.565-41.375 41.375zM72.14 553.642l227.147 227.983 36.27-36.137-227.147-227.983-36.27 36.137zM135.207 486.976l227.565 227.565 41.375-41.375-227.565-227.565-41.375 41.375zM312.374 623.044l41.375 41.375 77.579-77.579-41.375-41.375-77.579 77.579zM55.191 753.562l41.375 41.375 51.719-51.719-41.375-41.375-51.719 51.719zM869.997 749.155l51.719 51.719 41.375-41.375-51.719-51.719-41.375 41.375zM182.919 500.79l41.375 41.375 77.579-77.579-41.375-41.375-77.579 77.579z" />
<glyph unicode="&#xe64c;" glyph-name="enginePower" d="M843.557 602.624v-91.648h-22.674l-198.29 197.413h-130.194v38.181h148.334v53.467h-351.232v-53.467h148.334v-38.181h-179.858l-92.526-89.454h-58.075v-136.338h-37.083v148.334h-54.565v-351.232h54.565v148.407h37.083v-136.338h70.875l168.887-170.13h474.697v99.255h21.797v-99.255h164.718v480.987h-164.791zM953.71 176.128h-56.686v99.255h-128.731v-99.255h-398.702l-168.814 169.033h-38.912v219.282h25.527l92.526 90.551h320.219l198.29-198.51h98.523v92.672h56.686v-373.029zM576.219 541.989l-38.181 38.546-192.585-191.707h146.432l-100.133-100.645 38.327-38.473 192.219 192.512h-145.847z" />
<glyph unicode="&#xe64d;" glyph-name="torque" d="M239.616 394.313c0-150.235 122.149-272.384 272.384-272.384s272.384 122.149 272.384 272.384-122.149 272.384-272.384 272.384-272.384-122.149-272.384-272.384zM512 422.034c15.287 0 27.721-12.434 27.721-27.721s-12.434-27.721-27.721-27.721-27.721 12.434-27.721 27.721 12.434 27.721 27.721 27.721zM483.913 472.576c0-0.951-5.266-2.121-7.899-3.365l-96.914 96.914c29.769 23.040 59.173 38.546 104.814 43.52v-137.070zM476.014 319.415c2.633-1.243 7.899-2.341 7.899-3.365v-137.070c-45.641 4.974-75.045 20.48-104.887 43.593l96.987 96.841zM544.841 316.050c0 0.951 2.853 2.121 5.486 3.365l98.158-96.841c-29.842-23.040-73.216-38.546-103.643-43.593v137.070zM550.327 469.211c-2.633 1.317-5.486 2.414-5.486 3.365v137.070c30.427-4.974 73.874-20.48 103.643-43.593l-98.158-96.841zM340.261 526.629l96.841-97.061c-1.243-2.633-2.414-8.265-3.365-8.265h-137.070c4.974 45.714 20.48 75.483 43.593 105.326zM296.667 360.448h137.070c0.951 0 2.121-2.341 3.365-4.974l-96.841-98.45c-23.113 29.842-38.619 72.997-43.593 103.424zM683.739 258.56l-96.841 95.305c1.243 2.633 2.414 6.583 3.365 6.583h137.070c-4.974-30.427-20.48-72.046-43.593-101.888zM727.333 421.303h-137.070c-0.951 0-2.121 5.778-3.365 8.411l96.841 96.695c23.113-29.769 38.619-59.392 43.593-105.106zM894.757 390.875c0-197.851-171.666-379.392-382.757-379.392-211.017 0-382.757 173.349-382.757 384.366s171.666 383.561 382.757 383.561c20.846 0 41.691-1.243 61.806-4.535l22.821-2.341 14.117 37.888-151.406 154.99-39.497-38.693 89.161-91.136c-240.128-1.682-434.981-197.486-434.981-437.979 0-241.518 196.535-441.344 437.979-441.344s437.979 206.336 437.979 434.688h-55.223z" />
<glyph unicode="&#xe64e;" glyph-name="linkedin" d="M174.811 128h190.903v495.177h-190.903v-495.177zM228.206 566.857h87.040v-383.269h-87.040v386.194zM593.92 367.177c0 81.92 21.211 87.771 51.2 87.771 13.166 5.851 39.497 5.851 39.497-84.846v-242.103h189.44v303.543c0 127.269-63.634 199.68-176.274 199.68-3.715 0.258-8.050 0.404-12.42 0.404-34.41 0-66.693-9.104-94.573-25.034l0.936 16.584h-198.949v-495.177h198.949v242.103zM535.406 367.177v-184.32h-89.234v386.926h87.771v-35.84h58.514c19.070 29.047 51.493 47.962 88.334 47.962 5.48 0 10.862-0.418 16.116-1.225 80.601 0.074 123.024-48.932 123.024-146.212v-245.029h-77.531v180.663c0 117.76-54.857 146.286-99.474 146.286-106.789-2.926-108.983-106.789-108.983-146.286zM274.286 628.297c57.362 0 103.863 46.501 103.863 103.863s-46.501 103.863-103.863 103.863c-57.362 0-103.863-46.501-103.863-103.863s46.501-103.863 103.863-103.863zM274.286 780.434c0 0 0 0 0 0 27.065 0 49.006-21.941 49.006-49.006s-21.941-49.006-49.006-49.006c-27.065 0-49.006 21.941-49.006 49.006s21.941 49.006 49.006 49.006zM0 972.8v-1024h1024v1024h-1024zM970.606 2.194h-917.211v917.211h917.211v-917.211z" />
<glyph unicode="&#xe64f;" glyph-name="Trade_In" d="M136.046 465.408c0 194.56 158.354 352.841 352.987 352.841 104.521 0 201.655-44.763 268.361-123.685h-183.003v-54.565h261.047v254.976h-54.638v-143.726c-76.873 77.458-180.151 122.002-291.474 122.002-224.914 0-407.991-182.93-407.991-407.845 0-14.043 0.658-28.014 1.975-41.618l54.565 5.413c-1.243 11.922-1.829 23.991-1.829 36.206zM839.534 507.246c1.609-13.751 2.487-27.721 2.487-41.765 0-194.633-158.354-353.28-353.061-353.28-100.571 0-194.487 42.057-260.827 114.907h164.133v54.638h-255.049v-259.072h54.638v163.694c76.873-81.701 183.077-128.878 297.326-128.878 224.987 0 407.771 182.93 407.771 407.918 0 16.384-1.024 32.475-2.999 48.347l-54.418-6.51z" />
<glyph unicode="&#xe650;" glyph-name="Get_a_quote" d="M396.069 391.022v-48.567h200.338v48.567h-101.010c6.656 16.165 9.947 31.598 9.947 44.544 0 6.363-0.878 14.19-2.56 22.235h65.39v32.402h-78.994c-2.926 8.119-5.193 14.117-6.949 19.822-1.682 5.559-2.56 11.191-2.56 16.75 0 20.261 12.8 30.354 38.4 30.354 8.997 0 18.505-1.829 28.526-5.632s18.286-7.973 24.869-12.654l21.577 44.617c-8.704 5.925-20.407 11.191-34.889 15.945-14.555 4.754-29.111 7.095-43.666 7.095-19.31 0-35.986-3.291-50.176-9.874-14.117-6.51-25.088-15.726-32.695-27.575-7.753-11.849-11.483-25.381-11.483-40.741 0-11.191 3.657-23.918 10.898-38.107h-35.84l-7.314-32.402h56.686c1.902-8.119 2.926-15.726 2.926-22.601 0-13.678-3.438-28.014-10.313-44.178h-41.106zM137.509 465.408c0 194.56 158.354 352.841 353.061 352.841 104.594 0 201.728-44.763 268.288-123.685h-182.638v-54.565h261.047v254.976h-54.638v-143.799c-76.873 77.531-180.297 122.075-291.547 122.075-224.914 0-408.137-182.93-408.137-407.845 0-14.043 0.658-28.014 2.048-41.618l54.491 5.413c-1.243 11.922-1.975 23.991-1.975 36.206zM895.488 513.755l-54.418-6.583c1.609-13.751 2.414-27.721 2.414-41.765 0-194.633-158.354-353.28-352.987-353.28-100.571 0-194.487 42.057-260.827 114.907h164.352v54.711h-254.976v-259.072h54.638v163.694c74.898-81.701 182.93-128.878 297.179-128.878 224.914 0 407.625 182.93 407.625 407.918 0.073 16.384-1.024 32.549-2.999 48.347z" />
<glyph unicode="&#xe651;" glyph-name="Search_Inventory" d="M732.672 961.39h-441.71v-283.794h55.15v232.594h346.917v-232.594h232.594v-662.235h-579.511v122.222h-55.15v-177.371h689.81v755.273l-248.101 245.906zM748.178 870.766l137.947-138.021h-137.947v138.021zM377.417 190.757c113.81 0 206.482 92.672 206.482 206.482s-92.672 206.482-206.482 206.482c-113.883 0-206.555-92.672-206.555-206.482 0-46.811 15.653-90.112 42.057-124.782l-169.618-169.618 38.107-38.107 169.472 169.472c34.962-27.209 78.848-43.447 126.537-43.447zM377.417 549.961c84.187 0 152.649-68.462 152.649-152.649s-68.462-152.722-152.649-152.722c-84.261 0-152.722 68.462-152.722 152.649s68.462 152.722 152.722 152.722z" />
<glyph unicode="&#xe652;" glyph-name="Accessories" d="M903.314 95.086l-56.32 620.251h-152.137v73.143c-4.416 96.261-83.531 172.633-180.484 172.633-0.834 0-1.667-0.006-2.499-0.017l0.126 0.001c-98.976-0.224-179.829-77.506-185.757-175.021l-0.025-73.665h-155.794l-55.589-617.326c-0.461-4.010-0.725-8.657-0.725-13.366 0-32.082 12.222-61.309 32.264-83.28 20.43-23.035 50.128-37.63 83.241-37.937h557.403c33.167 0.307 62.865 14.902 83.281 37.918 20.847 22.173 33.594 51.96 33.594 84.724 0 4.205-0.21 8.361-0.62 12.458zM379.611 785.554c5.461 67.373 61.484 119.98 129.793 119.98 0.913 0 1.823-0.009 2.731-0.028l-0.136 0.002c0.684 0.013 1.49 0.021 2.298 0.021 67.283 0 122.158-53.128 124.962-119.722l0.008-73.397h-259.657v73.143zM830.171 35.84c-10.625-11.974-25.986-19.543-43.118-19.748h-556.653c-17.169 0.206-32.529 7.774-43.102 19.688-11.080 12.007-17.842 28.035-17.842 45.642 0 1.978 0.085 3.936 0.252 5.87l49.72 572.457h577.829l51.931-572.709c0.114-1.465 0.178-3.173 0.178-4.896 0-17.955-7.032-34.267-18.492-46.333z" />
<glyph unicode="&#xe653;" glyph-name="minus" d="M65.829 490.057h892.343v-58.514h-892.343v58.514z" />
<glyph unicode="&#xe654;" glyph-name="alert" d="M517.339-38.181l-498.981 498.981 498.981 498.981 499.054-498.981-499.054-498.981zM95.963 460.8l421.449-421.449 421.376 421.449-421.449 421.449-421.376-421.449zM480.329 297.984h74.021v-72.046h-74.021v72.046zM482.962 682.862h68.827l-7.753-308.297h-52.736l-8.338 308.297z" />
<glyph unicode="&#xe655;" glyph-name="DownloadBrochure" d="M550.254 61.952v537.673h-53.541v-539.575l-115.419 115.419-38.546-38.546 179.639-179.566 19.675 19.31 0.951-1.024 161.207 161.28-38.693 38.619zM587.776 964.242h-381.806v-701.294h203.995v53.614h-150.455v591.579h290.743v-206.555h214.235v-385.097h-125.001v-53.541h178.542v478.208l-230.254 223.086zM603.794 872.082l119.589-114.395h-119.589v114.395z" />
<glyph unicode="&#xe656;" glyph-name="Full_Screen_Close" d="M667.331 657.201l284.456 284.456 41.375-41.375-284.456-284.456-41.375 41.375zM30.819 21.277l289.628 289.628 41.375-41.375-289.628-289.628-41.375 41.375zM926.72 608.402h-270.629v270.629h51.2v-219.429h219.429zM363.52 45.202h-51.2v219.429h-219.429v51.2h270.629z" />
<glyph unicode="&#xe657;" glyph-name="Full_Screen" d="M661.022 651.513l284.456 284.456 41.375-41.375-284.456-284.456-41.375 41.375zM33.031 19.96l289.628 289.628 41.375-41.375-289.628-289.628-41.375 41.375zM1002.057 680.229h-58.514v212.114h-212.114v58.514h270.629zM292.571-29.257h-270.629v270.629h58.514v-212.114h212.114z" />
<glyph unicode="&#xe658;" glyph-name="LiveChat" d="M1012.517-45.202l-296.96 94.72c-69.193-36.206-146.651-55.296-224.768-55.296-127.415 0-247.223 49.591-337.189 139.483-187.392 187.465-187.392 492.471 0 680.009 90.843 90.77 211.529 140.8 339.968 140.8s249.125-50.030 339.968-140.8c147.31-147.383 181.175-376.759 84.187-562.030l94.793-296.887zM709.851 108.837l218.039-69.486-69.486 218.039 5.705 10.386c92.087 165.742 63.488 374.199-69.413 507.099-80.384 80.53-187.319 124.782-301.129 124.782s-220.745-44.251-301.129-124.782c-166.107-166.034-166.107-436.297 0-602.258 79.579-79.653 185.563-123.465 298.35-123.465 72.85 0 144.969 18.725 208.75 54.053l10.313 5.632z" />
<glyph unicode="&#xe659;" glyph-name="Pencil_v2" d="M825.198 733.989l42.35 42.13c60.635 60.635 56.539 122.587 16.018 162.962-18.871 18.798-43.886 29.257-70.51 29.257h-0.073c-26.624 0-61.879-17.627-90.917-46.665l-580.169-579.657-108.032-257.755 233.911 95.671 557.422 554.057zM781.312 900.242c8.485 8.558 19.675 13.166 31.671 13.166s23.259-4.608 33.353-14.775c17.481-17.408 17.481-45.861-0.073-63.342l-18.944-18.944-64.951 65.024 18.944 18.871zM721.993 844.142l67.95-68.023-521.947-521.435-67.95 67.95 521.947 521.509zM134.29 184.539l36.718 89.527 52.882-52.882-89.6-36.645zM0 8.338h1024v-54.857h-1024v54.857z" />
<glyph unicode="&#xe65a;" glyph-name="hybrid" d="M457.362 208.75l-38.839 38.693 101.449 101.815h-148.334l195.072 194.56 38.693-38.839-101.083-100.864h147.822zM512-37.010c-187.246 0-339.529 152.283-339.529 339.529 0 59.099 15.36 117.248 44.471 168.155l296.229 488.009 292.718-486.181c29.915-51.566 45.568-110.226 45.568-169.911 0.073-187.319-152.21-339.602-339.456-339.602zM513.024 852.553l-248.686-409.819c-24.064-41.984-36.937-90.697-36.937-140.288 0-156.965 127.707-284.672 284.672-284.672s284.672 127.707 284.672 284.672c0 50.103-13.166 99.182-37.961 141.97l-245.76 408.137z" />
<glyph unicode="&#xe65b;" glyph-name="OK" d="M326.217 362.789v0c28.028-22.565 61.704-39.345 98.524-47.943l-4.17-6.182-78.263-77.531c-12.667-11.537-20.895-27.756-21.935-45.901-0.019-0.656-0.026-1.217-0.026-1.78 0-28.686 16.514-53.515 40.553-65.499 8.862-4.346 18.791-6.775 29.288-6.775 0.138 0 0.277 0 0.415 0.001 0.144-0.002 0.339-0.002 0.534-0.002 18.768 0 35.702 7.854 47.693 20.455l73.169 78.29 51.2-48.274 27.794-27.794c11.034-12.196 26.382-20.31 43.618-21.923 1.071-0.052 2.015-0.070 2.963-0.070 28.984 0 54.031 16.859 65.869 41.305 3.873 8.294 6.021 17.499 6.021 27.206 0 18.206-7.558 34.646-19.708 46.354l-73.163 73.162-12.434 14.629c14.183 3.338 26.148 7.104 37.737 11.623 30.139 11.696 57.455 29.846 79.996 52.716 12.499 11.676 20.272 28.218 20.272 46.575 0 13.187-4.011 25.437-10.88 35.597-11.624 18.786-32.364 31.261-56.017 31.261-6.039 0-11.889-0.813-17.445-2.336l-8.315 0.108c38.339 34.859 62.445 84.787 62.902 140.352-1.329 54.233-24.337 102.763-60.637 137.523-34.969 36.174-83.832 58.591-137.93 58.591-0.648 0-1.296-0.003-1.943-0.010l0.099 0.001c-105.714-2.451-190.521-88.539-190.903-194.523-0.002-0.394-0.004-0.816-0.004-1.239 0-53.206 21.519-101.387 56.329-136.312l6.578-6.578c-8.552 4.165-18.606 6.6-29.228 6.6-37.568 0-68.023-30.455-68.023-68.023 0-20.784 9.321-39.39 24.011-51.867zM650.971 190.903c1.544-1.876 2.481-4.303 2.481-6.949s-0.936-5.073-2.496-6.967c-2.677-6.093-8.448-10.398-15.28-10.948-4.024 0.562-7.391 2.726-9.543 5.802l-28.555 28.571c-12.434 19.017-34.377 37.303-53.394 57.051-7.509 8.138-18.228 13.217-30.134 13.217-0.721 0-1.437-0.019-2.149-0.055l0.1 0.004c-11.676-0.445-22.039-5.711-29.219-13.852-25.639-26.376-53.433-53.439-87.079-87.085-1.706-1.638-4.026-2.647-6.583-2.647s-4.877 1.009-6.586 2.65c-5.915 2.752-9.996 8.551-10.236 15.327 0.565 3.99 2.729 7.357 5.806 9.509l80.502 76.098 34.377 34.377 5.851 9.509 13.166 13.897 19.017-13.897 6.583-9.509 43.154-43.154zM375.223 629.76c0.401 75.674 61.224 137.010 136.661 138.239l0.116 0.001c0.208 0.001 0.453 0.002 0.699 0.002 37.758 0 71.924-15.382 96.572-40.222 24.921-24.897 40.331-59.293 40.331-97.289 0-75.944-61.565-137.509-137.509-137.509-0.033 0-0.066 0-0.099 0h0.005c-75.059 0.823-135.638 61.658-136.046 136.738zM348.891 433.006c1.788 3.057 5.042 5.086 8.772 5.12 1.324 0.292 2.839 0.459 4.393 0.459s3.069-0.167 4.529-0.484l7.174-6.557c39.116-26.557 87.376-42.4 139.337-42.4s100.221 15.843 140.214 42.961l-0.877-0.561c4.093 3.547 8.978 6.305 14.344 7.97 1.341 0.448 2.558 0.663 3.825 0.663 4.129 0 7.725-2.281 9.597-5.651 5.88-10.296 0.029-12.49 0.029-15.416-17.148-17.257-37.877-30.933-60.981-39.826-22.486-8.411-47.257-14.342-72.977-17.107l-29.151-0.118h-32.183c-44.973 2.509-85.946 17.755-119.899 42.154l0.677-0.462-15.36 9.509c-3.431 2.251-5.665 6.080-5.665 10.43 0 3.704 1.619 7.029 4.189 9.307zM512 521.509v0c0.874-0.025 1.903-0.039 2.935-0.039 60.497 0 109.633 48.64 110.436 108.946l0.001 0.076c-1.209 60.063-50.185 108.291-110.425 108.291-1.036 0-2.069-0.014-3.098-0.043l0.152 0.003c-2.672 0.233-5.781 0.366-8.921 0.366-60.19 0-108.983-48.793-108.983-108.983s48.793-108.983 108.983-108.983c3.14 0 6.249 0.133 9.322 0.393zM473.234 667.794c9.572 10.812 23.309 17.749 38.674 18.283l0.092 0.003c30.701 0 55.589-24.888 55.589-55.589s-24.888-55.589-55.589-55.589v0c-28.682 1.975-51.2 25.725-51.2 54.735 0 0.043 0 0.086 0 0.129-0.004 0.242-0.006 0.535-0.006 0.829 0 14.982 5.85 28.598 15.391 38.688zM0 972.8v-1024h1024v1024h-1024zM970.606 2.194h-917.211v917.211h917.211v-917.211z" />
<glyph unicode="&#xe65c;" glyph-name="okFill" d="M326.217 362.789v0c28.028-22.565 61.704-39.345 98.524-47.943l-4.17-6.182-78.263-77.531c-12.667-11.537-20.895-27.756-21.935-45.901-0.019-0.656-0.026-1.217-0.026-1.78 0-28.686 16.514-53.515 40.553-65.499 8.862-4.346 18.791-6.775 29.288-6.775 0.138 0 0.277 0 0.415 0.001 0.144-0.002 0.339-0.002 0.534-0.002 18.768 0 35.702 7.854 47.693 20.455l73.169 78.29 51.2-48.274 27.794-27.794c11.034-12.196 26.382-20.31 43.618-21.923 1.071-0.052 2.015-0.070 2.963-0.070 28.984 0 54.031 16.859 65.869 41.305 3.873 8.294 6.021 17.499 6.021 27.206 0 18.206-7.558 34.646-19.708 46.354l-73.163 73.162-12.434 14.629c14.183 3.338 26.148 7.104 37.737 11.623 30.139 11.696 57.455 29.846 79.996 52.716 12.499 11.676 20.272 28.218 20.272 46.575 0 13.187-4.011 25.437-10.88 35.597-11.624 18.786-32.364 31.261-56.017 31.261-6.039 0-11.889-0.813-17.445-2.336l-8.315 0.108c38.339 34.859 62.445 84.787 62.902 140.352-1.329 54.233-24.337 102.763-60.637 137.523-34.969 36.174-83.832 58.591-137.93 58.591-0.648 0-1.296-0.003-1.943-0.010l0.099 0.001c-105.714-2.451-190.521-88.539-190.903-194.523-0.002-0.394-0.004-0.816-0.004-1.239 0-53.206 21.519-101.387 56.329-136.312l6.578-6.578c-8.552 4.165-18.606 6.6-29.228 6.6-37.568 0-68.023-30.455-68.023-68.023 0-20.784 9.321-39.39 24.011-51.867zM650.971 190.903c1.544-1.876 2.481-4.303 2.481-6.949s-0.936-5.073-2.496-6.967c-2.677-6.093-8.448-10.398-15.28-10.948-4.024 0.562-7.391 2.726-9.543 5.802l-28.555 28.571c-12.434 19.017-34.377 37.303-53.394 57.051-7.509 8.138-18.228 13.217-30.134 13.217-0.721 0-1.437-0.019-2.149-0.055l0.1 0.004c-11.676-0.445-22.039-5.711-29.219-13.852-25.639-26.376-53.433-53.439-87.079-87.085-1.706-1.638-4.026-2.647-6.583-2.647s-4.877 1.009-6.586 2.65c-5.915 2.752-9.996 8.551-10.236 15.327 0.565 3.99 2.729 7.357 5.806 9.509l80.502 76.098 34.377 34.377 5.851 9.509 13.166 13.897 19.017-13.897 6.583-9.509 43.154-43.154zM375.223 629.76c0.401 75.674 61.224 137.010 136.661 138.239l0.116 0.001c0.208 0.001 0.453 0.002 0.699 0.002 37.758 0 71.924-15.382 96.572-40.222 24.921-24.897 40.331-59.293 40.331-97.289 0-75.944-61.565-137.509-137.509-137.509-0.033 0-0.066 0-0.099 0h0.005c-75.059 0.823-135.638 61.658-136.046 136.738zM348.891 433.006c1.788 3.057 5.042 5.086 8.772 5.12 1.324 0.292 2.839 0.459 4.393 0.459s3.069-0.167 4.529-0.484l7.174-6.557c39.116-26.557 87.376-42.4 139.337-42.4s100.221 15.843 140.214 42.961l-0.877-0.561c4.093 3.547 8.978 6.305 14.344 7.97 1.341 0.448 2.558 0.663 3.825 0.663 4.129 0 7.725-2.281 9.597-5.651 5.88-10.296 0.029-12.49 0.029-15.416-17.148-17.257-37.877-30.933-60.981-39.826-22.486-8.411-47.257-14.342-72.977-17.107l-29.151-0.118h-32.183c-44.973 2.509-85.946 17.755-119.899 42.154l0.677-0.462-15.36 9.509c-3.431 2.251-5.665 6.080-5.665 10.43 0 3.704 1.619 7.029 4.189 9.307zM512 521.509v0c0.874-0.025 1.903-0.039 2.935-0.039 60.497 0 109.633 48.64 110.436 108.946l0.001 0.076c-1.209 60.063-50.185 108.291-110.425 108.291-1.036 0-2.069-0.014-3.098-0.043l0.152 0.003c-2.672 0.233-5.781 0.366-8.921 0.366-60.19 0-108.983-48.793-108.983-108.983s48.793-108.983 108.983-108.983c3.14 0 6.249 0.133 9.322 0.393zM473.234 667.794c9.572 10.812 23.309 17.749 38.674 18.283l0.092 0.003c30.701 0 55.589-24.888 55.589-55.589s-24.888-55.589-55.589-55.589v0c-28.682 1.975-51.2 25.725-51.2 54.735 0 0.043 0 0.086 0 0.129-0.004 0.242-0.006 0.535-0.006 0.829 0 14.982 5.85 28.598 15.391 38.688zM0 972.8v-1024h1024v1024h-1024zM970.606 2.194h-917.211v917.211h917.211v-917.211z" />
<glyph unicode="&#xe65d;" glyph-name="vk" d="M-0.585 973.385v-1025.17h1025.17v1025.17h-1025.17zM969.728 3.072h-915.456v915.456h915.456v-915.456zM185.856 505.637c17.627-32.768 32.914-59.246 46.007-79.287 13.093-20.114 26.405-39.131 40.009-57.051 13.751-18.066 22.894-29.55 27.502-34.889 4.681-5.266 8.338-9.216 11.703-12.727l8.704-8.338c6.729-6.656 16.384-14.702 29.184-23.845 12.142-8.704 25.527-17.335 40.229-25.819 15.945-9.143 34.304-16.53 54.638-22.089 21.138-5.705 42.35-8.265 60.709-6.949l44.471 0.073c19.017 1.609 30.501 9.728 36.864 16.311l4.608 5.705c2.779 4.242 4.827 9.216 6.29 14.629s2.267 11.264 2.267 17.993c-0.146 8.338 0.439 15.799 1.829 22.162 1.829 8.411 3.218 11.264 3.365 11.557l0.512 0.585c4.974-4.023 9.947-8.85 14.409-14.409 7.241-8.777 16.018-18.725 26.185-29.696 11.118-11.849 20.919-20.699 31.598-28.16l7.534-4.535c6.729-4.023 14.848-7.534 24.795-10.606 8.558-2.706 16.53-4.023 22.382-4.023 2.853 0 5.12 0.293 6.875 0.878l93.403 1.463c14.409 0 26.039 2.779 35.401 8.338 14.629 8.558 19.968 19.383 21.87 26.551 2.048 7.68 2.267 15.945 0.731 24.649-1.463 7.461-2.853 12.434-4.827 16.603l-3.145 5.998c-13.751 24.795-38.4 53.467-76.069 88.649l-8.411 7.973h-0.293c-9.947 9.582-16.603 16.603-20.334 22.382 0.585 1.463 4.681 10.021 29.111 41.179 10.167 13.166 18.213 23.625 23.991 31.451 60.050 79.872 66.999 111.177 58.88 133.632l-5.339 9.947c-6.949 10.094-18.213 14.409-26.112 16.75-9.874 2.999-21.211 3.657-31.525 2.048l-103.058-0.731c-5.339 0.805-11.849 0.073-20.48-1.975l-8.119-3.657-14.775-12.069c-2.926-3.73-5.413-8.119-7.607-13.385-10.898-28.16-23.552-54.638-37.157-78.336-8.777-14.629-16.75-27.282-24.137-38.107-4.681-6.949-8.85-12.507-12.361-16.75 0 0.219 0 0.439 0 0.658-0.146 3.803-0.073 9.070 0.146 15.653l0.439 16.457c0 8.997 0.146 18.798 0.512 29.33l0.951 25.819c0.146 6.583 0.293 13.605 0.293 21.065 0 9.070-0.658 16.384-1.829 22.382-1.317 5.851-3.218 11.703-5.778 17.408-3.95 8.631-10.094 15.726-17.774 20.626-5.778 3.657-12.361 6.363-20.846 8.485-14.994 3.365-33.061 5.12-55.296 5.413-64.439 0.439-88.137-5.851-100.498-11.922-8.192-4.169-15.433-9.874-22.528-17.847-9.655-11.776-12.434-23.479-8.119-34.743l7.607-16.238 15.872-2.414c8.485-1.243 12.215-3.584 13.093-5.632 0-0.073 0.951-2.414 2.56-9.947 1.536-6.802 2.341-14.263 2.779-22.894 1.097-16.165 1.17-29.842 0.073-41.253-1.024-10.533-1.902-18.944-2.926-25.6-0.439 0.512-0.951 1.024-1.463 1.609-4.389 5.12-9.362 12.142-15.067 21.431-6.217 10.094-12.507 21.943-19.822 36.864l-5.632 10.313c-3.511 6.656-8.411 16.238-14.629 29.038-5.998 12.434-11.41 24.43-15.726 35.547-3.877 10.094-10.313 18.578-19.31 24.649l-12.581 7.095c-4.608 1.902-9.582 3.291-19.017 4.389l-100.206-0.731c-19.163 0-33.426-5.925-46.226-22.967l-4.681-12.215v-7.314c0-6.144 1.39-12.8 4.462-20.626 15.067-35.474 31.525-69.778 48.859-101.961zM838.437 288.768c0.658 0.951 1.17 1.463 1.317 1.536 0 0-1.829-0.439-4.974-0.658l25.527 9.216-21.87-10.094zM283.282 615.57c5.12-12.8 10.971-26.039 17.627-39.643 6.583-13.605 11.703-23.771 15.726-31.232l5.193-9.435c7.607-15.579 14.848-29.111 21.797-40.375 7.607-12.434 14.482-22.089 20.48-28.891 6.802-7.753 13.458-13.824 20.114-18.578 16.603-11.63 25.015-16.238 53.467-3.73l8.119 7.753c2.121 2.706 3.95 5.778 7.314 12.581 3.584 7.022 6.071 15.433 7.534 25.307 1.243 7.534 2.414 17.993 3.73 31.451 1.39 13.97 1.463 30.72 0.146 49.883-0.658 11.337-1.902 21.723-3.877 31.086-2.341 10.971-4.754 18.432-7.534 23.479l-4.096 7.607c11.191 1.024 26.697 1.609 49.298 1.317 18.139-0.219 32.841-1.609 46.665-8.558 0.219-0.731 0.731-3.803 0.731-10.971l-1.317-44.983c-0.366-11.264-0.512-21.65-0.512-31.232l-0.439-14.629c-0.219-8.192-0.293-14.775-0.146-18.871 0.073-4.901 0.658-10.752 1.536-17.774 1.17-9.070 3.657-17.115 7.387-23.991 4.315-7.826 10.167-14.19 17.408-18.944l14.994-5.12c10.606-2.194 21.285 0.585 32.402 9.143 4.974 3.803 10.533 8.777 16.75 15.141 5.925 6.144 13.385 15.433 22.162 28.306 7.753 11.483 16.384 25.161 25.966 41.106 15.214 26.331 28.891 55.077 37.449 82.359l110.080 0.951c1.609 0.219 3.072 0.293 4.389 0.366-4.535-11.264-16.603-33.646-47.762-75.264-5.705-7.607-13.678-17.993-23.406-30.647-27.429-35.035-34.158-47.47-36.791-54.418-7.899-19.163-4.754-39.351 9.143-57.344 4.535-5.559 15.141-16.53 32.11-32.695l7.461-6.802c29.257-27.575 49.152-50.834 59.611-69.632-0.951-0.073-1.463-0.219-2.779-0.219l-93.842-1.463-9.216 1.243-2.706-0.585c-7.241 2.194-11.118 4.169-13.093 5.266l-5.705 3.365c-3.95 2.853-10.971 8.631-21.285 19.675-9.289 10.094-17.335 19.163-24.137 27.282-8.338 10.167-17.554 18.871-27.502 26.039-19.31 13.751-35.109 12.727-51.273 6.875-4.462-2.048-8.704-5.339-13.605-10.386-4.901-4.827-9.070-10.386-12.8-17.262-3.73-6.729-6.656-15.433-8.997-26.331-2.267-10.459-3.365-22.162-0.512-33.646l-43.813-0.073c-14.263-1.097-29.257 0.878-44.69 5.12-15.872 4.315-29.842 9.947-41.765 16.75-12.873 7.387-24.649 14.921-35.474 22.747-9.801 7.022-17.335 13.093-22.821 18.578l-17.481 17.92c-4.169 4.681-12.434 15.36-25.088 32.037-12.873 16.75-25.381 34.67-37.742 53.614-12.361 19.090-26.917 44.251-43.666 75.557-14.482 26.843-28.379 55.296-41.253 84.114l90.331-0.293z" />
<glyph unicode="&#xe65e;" glyph-name="vkFill" d="M-0.585 973.385v-1025.17h1025.17v1025.17h-1025.17zM969.728 3.072h-915.456v915.456h915.456v-915.456zM185.856 505.637c17.627-32.768 32.914-59.246 46.007-79.287 13.093-20.114 26.405-39.131 40.009-57.051 13.751-18.066 22.894-29.55 27.502-34.889 4.681-5.266 8.338-9.216 11.703-12.727l8.704-8.338c6.729-6.656 16.384-14.702 29.184-23.845 12.142-8.704 25.527-17.335 40.229-25.819 15.945-9.143 34.304-16.53 54.638-22.089 21.138-5.705 42.35-8.265 60.709-6.949l44.471 0.073c19.017 1.609 30.501 9.728 36.864 16.311l4.608 5.705c2.779 4.242 4.827 9.216 6.29 14.629s2.267 11.264 2.267 17.993c-0.146 8.338 0.439 15.799 1.829 22.162 1.829 8.411 3.218 11.264 3.365 11.557l0.512 0.585c4.974-4.023 9.947-8.85 14.409-14.409 7.241-8.777 16.018-18.725 26.185-29.696 11.118-11.849 20.919-20.699 31.598-28.16l7.534-4.535c6.729-4.023 14.848-7.534 24.795-10.606 8.558-2.706 16.53-4.023 22.382-4.023 2.853 0 5.12 0.293 6.875 0.878l93.403 1.463c14.409 0 26.039 2.779 35.401 8.338 14.629 8.558 19.968 19.383 21.87 26.551 2.048 7.68 2.267 15.945 0.731 24.649-1.463 7.461-2.853 12.434-4.827 16.603l-3.145 5.998c-13.751 24.795-38.4 53.467-76.069 88.649l-8.411 7.973h-0.293c-9.947 9.582-16.603 16.603-20.334 22.382 0.585 1.463 4.681 10.021 29.111 41.179 10.167 13.166 18.213 23.625 23.991 31.451 60.050 79.872 66.999 111.177 58.88 133.632l-5.339 9.947c-6.949 10.094-18.213 14.409-26.112 16.75-9.874 2.999-21.211 3.657-31.525 2.048l-103.058-0.731c-5.339 0.805-11.849 0.073-20.48-1.975l-8.119-3.657-14.775-12.069c-2.926-3.73-5.413-8.119-7.607-13.385-10.898-28.16-23.552-54.638-37.157-78.336-8.777-14.629-16.75-27.282-24.137-38.107-4.681-6.949-8.85-12.507-12.361-16.75 0 0.219 0 0.439 0 0.658-0.146 3.803-0.073 9.070 0.146 15.653l0.439 16.457c0 8.997 0.146 18.798 0.512 29.33l0.951 25.819c0.146 6.583 0.293 13.605 0.293 21.065 0 9.070-0.658 16.384-1.829 22.382-1.317 5.851-3.218 11.703-5.778 17.408-3.95 8.631-10.094 15.726-17.774 20.626-5.778 3.657-12.361 6.363-20.846 8.485-14.994 3.365-33.061 5.12-55.296 5.413-64.439 0.439-88.137-5.851-100.498-11.922-8.192-4.169-15.433-9.874-22.528-17.847-9.655-11.776-12.434-23.479-8.119-34.743l7.607-16.238 15.872-2.414c8.485-1.243 12.215-3.584 13.093-5.632 0-0.073 0.951-2.414 2.56-9.947 1.536-6.802 2.341-14.263 2.779-22.894 1.097-16.165 1.17-29.842 0.073-41.253-1.024-10.533-1.902-18.944-2.926-25.6-0.439 0.512-0.951 1.024-1.463 1.609-4.389 5.12-9.362 12.142-15.067 21.431-6.217 10.094-12.507 21.943-19.822 36.864l-5.632 10.313c-3.511 6.656-8.411 16.238-14.629 29.038-5.998 12.434-11.41 24.43-15.726 35.547-3.877 10.094-10.313 18.578-19.31 24.649l-12.581 7.095c-4.608 1.902-9.582 3.291-19.017 4.389l-100.206-0.731c-19.163 0-33.426-5.925-46.226-22.967l-4.681-12.215v-7.314c0-6.144 1.39-12.8 4.462-20.626 15.067-35.474 31.525-69.778 48.859-101.961zM838.437 288.768c0.658 0.951 1.17 1.463 1.317 1.536 0 0-1.829-0.439-4.974-0.658l25.527 9.216-21.87-10.094zM283.282 615.57c5.12-12.8 10.971-26.039 17.627-39.643 6.583-13.605 11.703-23.771 15.726-31.232l5.193-9.435c7.607-15.579 14.848-29.111 21.797-40.375 7.607-12.434 14.482-22.089 20.48-28.891 6.802-7.753 13.458-13.824 20.114-18.578 16.603-11.63 25.015-16.238 53.467-3.73l8.119 7.753c2.121 2.706 3.95 5.778 7.314 12.581 3.584 7.022 6.071 15.433 7.534 25.307 1.243 7.534 2.414 17.993 3.73 31.451 1.39 13.97 1.463 30.72 0.146 49.883-0.658 11.337-1.902 21.723-3.877 31.086-2.341 10.971-4.754 18.432-7.534 23.479l-4.096 7.607c11.191 1.024 26.697 1.609 49.298 1.317 18.139-0.219 32.841-1.609 46.665-8.558 0.219-0.731 0.731-3.803 0.731-10.971l-1.317-44.983c-0.366-11.264-0.512-21.65-0.512-31.232l-0.439-14.629c-0.219-8.192-0.293-14.775-0.146-18.871 0.073-4.901 0.658-10.752 1.536-17.774 1.17-9.070 3.657-17.115 7.387-23.991 4.315-7.826 10.167-14.19 17.408-18.944l14.994-5.12c10.606-2.194 21.285 0.585 32.402 9.143 4.974 3.803 10.533 8.777 16.75 15.141 5.925 6.144 13.385 15.433 22.162 28.306 7.753 11.483 16.384 25.161 25.966 41.106 15.214 26.331 28.891 55.077 37.449 82.359l110.080 0.951c1.609 0.219 3.072 0.293 4.389 0.366-4.535-11.264-16.603-33.646-47.762-75.264-5.705-7.607-13.678-17.993-23.406-30.647-27.429-35.035-34.158-47.47-36.791-54.418-7.899-19.163-4.754-39.351 9.143-57.344 4.535-5.559 15.141-16.53 32.11-32.695l7.461-6.802c29.257-27.575 49.152-50.834 59.611-69.632-0.951-0.073-1.463-0.219-2.779-0.219l-93.842-1.463-9.216 1.243-2.706-0.585c-7.241 2.194-11.118 4.169-13.093 5.266l-5.705 3.365c-3.95 2.853-10.971 8.631-21.285 19.675-9.289 10.094-17.335 19.163-24.137 27.282-8.338 10.167-17.554 18.871-27.502 26.039-19.31 13.751-35.109 12.727-51.273 6.875-4.462-2.048-8.704-5.339-13.605-10.386-4.901-4.827-9.070-10.386-12.8-17.262-3.73-6.729-6.656-15.433-8.997-26.331-2.267-10.459-3.365-22.162-0.512-33.646l-43.813-0.073c-14.263-1.097-29.257 0.878-44.69 5.12-15.872 4.315-29.842 9.947-41.765 16.75-12.873 7.387-24.649 14.921-35.474 22.747-9.801 7.022-17.335 13.093-22.821 18.578l-17.481 17.92c-4.169 4.681-12.434 15.36-25.088 32.037-12.873 16.75-25.381 34.67-37.742 53.614-12.361 19.090-26.917 44.251-43.666 75.557-14.482 26.843-28.379 55.296-41.253 84.114l90.331-0.293z" />
<glyph unicode="&#xe65f;" glyph-name="explore" d="M512 963.145c-276.992 0-502.345-225.353-502.345-502.345s225.353-502.345 502.345-502.345c277.065 0 502.418 225.353 502.418 502.345-0.073 276.992-225.426 502.345-502.418 502.345zM539.136 14.043v143.214h-54.199v-143.214c-225.426 13.678-406.235 194.048-419.694 419.474h143.433v54.199h-143.433c13.897 225.426 194.267 406.235 419.694 419.84v-141.897h54.199v141.897c225.426-13.605 405.723-194.414 419.621-419.84h-143.36v-54.199h143.36c-13.385-225.426-194.194-405.87-419.621-419.474zM297.179 245.029l270.921 133.047 163.109 300.983-300.983-163.109-133.047-270.921zM595.237 543.086l-50.103-92.379-42.277 42.35 92.379 50.030zM508.489 409.819l-91.429-44.91 44.983 91.502 46.446-46.592z" />
<glyph unicode="&#xe660;" glyph-name="Elipsis_Infiniti" d="M456.85 515.657h109.714v-109.714h-109.714v109.714zM758.565 515.657h109.714v-109.714h-109.714v109.714zM155.136 515.657h109.714v-109.714h-109.714v109.714z" />
<glyph unicode="&#xe661;" glyph-name="Calendar" d="M841.070 898.853c-4.242 13.751-10.606 26.697-21.065 37.083-33.646 33.719-92.306 33.792-126.171 0-10.606-10.679-16.823-23.552-20.919-37.083h-320.512c-4.242 13.751-10.606 26.624-21.065 37.083-33.719 33.719-92.233 33.792-126.171 0-10.606-10.679-16.823-23.552-20.992-37.083h-178.688v-938.496h1013.102v938.496h-177.518zM732.672 897.17c6.51 6.437 15.141 10.021 24.283 10.021 9.216 0 17.847-3.584 24.357-10.021 6.437-6.51 10.094-15.141 10.094-24.283s-3.657-17.774-10.094-24.283c-12.946-12.8-35.621-12.946-48.567 0-13.385 13.385-13.385 35.182-0.073 48.567zM243.931 897.17c6.51 6.437 15.141 10.021 24.283 10.021 9.216 0 17.847-3.584 24.357-10.021 6.437-6.51 10.094-15.141 10.094-24.283s-3.657-17.774-10.094-24.283c-13.019-12.8-35.694-12.946-48.567 0-13.312 13.385-13.312 35.182-0.073 48.567zM60.343 843.995h124.416c4.242-12.434 10.533-24.283 20.48-34.158 16.823-16.823 39.205-26.112 62.976-26.112 23.845 0 46.226 9.216 63.122 26.112 9.728 9.728 16.091 21.577 20.407 34.158h321.682c4.242-12.434 10.533-24.283 20.48-34.158 16.823-16.823 39.205-26.112 62.976-26.112 23.845 0 46.226 9.216 63.122 26.112 9.728 9.728 16.091 21.577 20.407 34.158h123.173v-115.054h-903.241v115.054zM963.73 15.214h-903.387v658.871h903.387v-658.871zM199.314 515.73h120.978v-54.857h-120.978v54.857zM448.366 515.73h120.978v-54.857h-120.978v54.857zM695.077 515.73h121.051v-54.857h-121.051v54.857zM199.314 353.061h120.978v-54.857h-120.978v54.857zM448.366 353.061h120.978v-54.857h-120.978v54.857zM695.077 353.061h121.051v-54.857h-121.051v54.857zM199.314 190.391h120.978v-54.857h-120.978v54.857zM448.366 190.391h120.978v-54.857h-120.978v54.857zM695.077 190.391h121.051v-54.857h-121.051v54.857z" />
<glyph unicode="&#xe662;" glyph-name="Infiniti_BAS_ExpressBooking" d="M720.165 858.697l21.797 52.59-51.2 21.211-21.943-52.59c-40.009 13.824-82.944 22.455-126.683 25.015v61.659h-54.638v-61.733c-248.613-14.409-444.635-220.16-444.635-471.186 0-260.315 211.749-472.137 472.064-472.137s472.064 211.822 472.064 472.137c0 186.734-109.056 348.526-266.825 425.033zM514.779 16.896c-229.815 0-416.768 186.953-416.768 416.768 0 229.742 186.953 416.695 416.768 416.695s416.768-186.953 416.768-416.695c0-229.815-186.88-416.768-416.768-416.768zM487.058 788.992h55.369v-352.475h-55.369v352.475z" />
<glyph unicode="&#xe663;" glyph-name="Colour" d="M431.835 537.234c-17.042-16.823-26.331-39.351-26.331-63.415l-1.829-20.114-41.765-62.683c-10.313-15.653-8.119-36.571 5.047-49.81l25.234-25.234c7.461-7.314 17.335-11.337 27.794-11.337 7.899 0 15.506 2.633 21.943 6.949l68.389 43.886h11.557c24.649 0 48.421 9.947 65.097 27.721 32.329 34.304 113.371 112.786 158.281 156.087l25.6-25.6 105.911 106.13-24.503 24.43 124.855 119.881c21.65 21.723 33.573 50.542 33.573 81.189s-11.922 59.465-33.646 81.189c-41.765 41.691-120.32 42.057-162.816-0.658l-119.15-124.197-24.503 24.43-106.13-106.057 25.088-25.088-157.696-157.696zM547.621 419.401c-6.583-7.022-15.945-11.557-25.746-11.557h-11.557c-12.727 0-25.088-3.218-35.84-10.313l-52.663-34.889-8.192 8.338 34.962 52.59c7.168 10.606 10.825 23.186 10.825 35.986v14.263c0 9.509 3.803 18.359 10.533 25.161l157.842 157.842 79.141-79.141c-50.030-48.64-130.121-127.195-159.305-158.281zM670.574 749.568l25.234-25.307 157.184 163.694c21.65 21.65 64.219 21.797 85.943 0.146 11.483-11.41 17.774-26.624 17.774-42.862s-6.29-31.451-17.335-42.496l-164.279-157.769 25.234-25.307-29.477-29.623-129.829 129.975 29.55 29.55zM511.049 16.53c-244.882 0-443.758 199.387-443.758 444.27s197.632 444.27 444.489 444.27v54.126c-276.846 0-498.615-223.451-498.615-498.249s223.305-498.615 498.030-498.615c274.725 0 498.030 224.768 498.030 497.81h-54.126c0.073-243.054-199.168-443.611-444.050-443.611z" />
<glyph unicode="&#xe664;" glyph-name="kw" d="M841.874 601.819v-92.087h-21.943l-197.705 198.217h-130.048v37.303h148.041v53.614h-349.696v-53.614h148.041v-37.303h-179.712l-92.16-89.819h-58.002v-136.411h-37.303v148.114h-53.614v-349.696h53.614v148.041h37.303v-136.411h70.656l168.302-169.033h473.234v99.109h20.992v-99.109h164.352v479.086h-164.352zM952.613 176.421h-55.954v99.035h-129.39v-99.109h-397.093l-168.302 169.033h-39.57v219.136h26.258l92.233 89.746h319.122l197.632-198.144h99.109v92.087h55.954v-371.785zM461.385 461.97h-36.206l-64.731-63.781v132.535h-26.77v-209.774h26.77v44.983l17.701 16.53 52.517-61.513h34.231l-68.754 78.848zM642.414 350.866l-40.009 111.104h-29.55l-40.375-110.519-37.376 110.519h-27.648l51.858-141.019h26.77l41.326 110.446 40.887-110.446h27.648l52.151 141.019h-28.306z" />
<glyph unicode="&#xe665;" glyph-name="clear" d="M512-44.325c-278.528 0-505.125 226.597-505.125 505.125s226.597 505.125 505.125 505.125 505.125-226.523 505.125-505.125-226.597-505.125-505.125-505.125zM512 911.067c-248.32 0-450.267-201.947-450.267-450.267s201.947-450.267 450.267-450.267 450.267 201.947 450.267 450.267-201.947 450.267-450.267 450.267zM714.679 623.104l-38.619 38.985-163.913-162.523-162.45 163.913-38.912-38.619 162.45-163.84-163.913-162.523 38.619-38.985 163.913 162.523 162.45-163.913 38.912 38.619-162.45 163.84z" />
<glyph unicode="&#xe666;" glyph-name="Calculator" d="M907.337-45.495h-790.674v1012.59h790.747v-1012.59zM171.52 9.362h681.033v902.875h-681.033v-902.875zM300.837 503.881h82.505v-54.857h-82.505v54.857zM470.747 503.881h82.578v-54.857h-82.578v54.857zM638.976 503.881h82.578v-54.857h-82.578v54.857zM300.837 368.713h82.505v-54.857h-82.505v54.857zM470.747 368.713h82.578v-54.857h-82.578v54.857zM638.976 368.713h82.578v-54.857h-82.578v54.857zM300.837 233.618h82.505v-54.857h-82.505v54.857zM470.747 233.618h82.578v-54.857h-82.578v54.857zM638.976 233.618h82.578v-54.857h-82.578v54.857zM277.87 771.877h468.261v-54.857h-468.261v54.857z" />
<glyph unicode="&#xe667;" glyph-name="Info_fill" d="M512 972.8c-282.761 0-512-229.239-512-512s229.239-512 512-512 512 229.239 512 512-229.239 512-512 512zM547.362 187.904h-71.543v372.429h71.543v-372.429zM550.434 662.255h-76.766v71.441h76.766v-71.441z" />
<glyph unicode="&#xe668;" glyph-name="SocialYouku" d="M-0.585 973.385v-1025.17h1025.17v1025.17h-1025.17zM969.728 3.072h-915.456v915.456h915.456v-915.456zM178.761 433.298l-37.303-81.335c-6.29-13.824-0.293-30.135 13.531-36.425 3.657-1.682 7.534-2.487 11.41-2.487 10.386 0 20.261 5.925 24.942 16.018l75.045 163.694c-0.146-2.267-1.243-4.242-1.243-6.583 0-53.833 41.106-97.646 91.502-97.646 37.376 0 69.413 24.21 83.602 58.587 8.485-31.817 37.23-54.638 75.191-54.638 52.736 0 72.558 23.479 80.091 43.739v-20.334c0-15.141 12.288-27.429 27.429-27.429s27.355 12.361 27.355 27.502v23.333l73.874-43.008c4.315-2.487 9.070-3.73 13.751-3.73 9.435 0 18.578 4.901 23.698 13.605 1.463 2.487 2.048 5.193 2.706 7.826 14.117-13.312 34.011-21.431 56.832-21.431 78.555 0 84.699 52.224 84.699 68.242v106.057c0 15.141-12.288 27.429-27.429 27.429s-27.429-12.288-27.429-27.429v-106.057c0-4.681 0-13.385-29.842-13.385-8.338 0-24.064 3.73-24.064 17.701v101.669c0 15.141-12.288 27.429-27.429 27.429-9.874 0-18.139-5.559-22.967-13.385-8.997 4.389-20.041 3.95-28.526-2.487l-67.877-51.419v39.863c0 15.141-12.288 27.429-27.429 27.429-11.264 0-20.846-6.802-25.088-16.53-4.242 9.728-13.897 16.53-25.161 16.53-15.141 0-27.429-12.288-27.429-27.429v-105.984c0-4.681 0-13.385-29.842-13.385-8.338 0-24.064 3.73-24.064 17.701v101.669c0 15.141-12.288 27.429-27.429 27.429s-27.429-12.215-27.429-27.429v-35.547c-15.433 30.866-44.91 52.663-79.872 52.663-23.259 0-43.959-10.021-60.123-25.381l5.12 11.191c6.29 13.824 0.293 30.062-13.458 36.352-13.605 6.29-30.062 0.293-36.352-13.458l-45.568-99.474-63.561 102.473c-7.973 12.8-24.869 16.823-37.742 8.85-12.946-7.973-16.823-24.869-8.85-37.815l82.725-133.339zM742.254 527.726v-62.683c0-6.51 2.194-12.142 3.803-18.066l-62.391 36.352 58.587 44.398zM356.571 529.042c20.187 0 36.645-19.237 36.645-42.862s-16.457-42.789-36.645-42.789-36.645 19.237-36.645 42.789c0 23.698 16.457 42.862 36.645 42.862z" />
<glyph unicode="&#xe669;" glyph-name="Road_Tax" d="M214.089 823.954l0.073-179.493h-0.073c0-3.072 0-2.414 0.073-3.291l0.073-179.2h-0.146c0 0 0-3.218 0.073-4.462l0.073-178.103h-0.146c0 0 0.073-2.267 0.146-3.803l0.073-175.689h-0.219c0-3.072 0.073-4.535 0.219-6.363v-14.921h2.487c20.846-73.143 158.866-111.031 295.205-111.031 147.968 0 297.911 45.714 297.911 131.877v724.48c0 173.422-595.822 173.422-595.822 0zM511.781 901.998c146.359 0 243.346-46.226 243.346-76.873s-97.061-76.946-243.346-76.946-243.419 46.299-243.419 76.873 97.061 76.946 243.419 76.946zM511.781 22.601c-142.409 0-238.153 43.813-243.2 74.386v104.96c56.832-34.523 150.382-52.224 243.2-52.224 92.965 0 185.563 17.774 243.346 52.37v-102.546c0-30.72-96.987-76.946-243.346-76.946zM511.781 203.995c-142.921 0-238.885 44.105-243.2 74.752v104.667c56.832-34.523 150.382-52.297 243.273-52.297 92.965 0 185.563 17.774 243.346 52.37v-102.619c-0.073-30.647-97.061-76.873-243.419-76.873zM511.781 385.39c-143.579 0-239.689 44.544-243.273 75.118v104.302c56.759-34.523 150.382-52.297 243.273-52.297 92.965 0 185.563 17.774 243.346 52.37v-102.619c0-30.647-96.987-76.873-243.346-76.873zM511.781 566.784c-144.384 0-240.786 45.056-243.346 75.63v103.79c56.759-34.523 150.382-52.297 243.346-52.297s185.563 17.774 243.346 52.37v-102.619c0-30.574-96.987-76.873-243.346-76.873z" />
<glyph unicode="&#xe66a;" glyph-name="Review" d="M672.987 247.735l-167.79 88.137-167.79-88.137 32.037 186.807-135.68 132.242 187.538 27.282 83.895 169.984 83.822-169.984 187.538-27.282-135.607-132.242 32.037-186.807zM351.671 528.53l76.8-74.825-18.213-105.691 94.939 49.883 94.939-49.883-18.213 105.618 76.873 74.825-106.13 15.506-47.47 96.11-47.47-96.11-106.057-15.433zM1012.517-45.202l-296.96 94.72c-69.193-36.206-146.651-55.296-224.768-55.296-127.415 0-247.223 49.591-337.189 139.483-187.392 187.465-187.392 492.471 0 680.009 90.843 90.77 211.529 140.8 339.968 140.8s249.125-50.030 339.968-140.8c147.31-147.383 181.175-376.759 84.187-562.030l94.793-296.887zM709.851 108.837l218.039-69.486-69.486 218.039 5.705 10.386c92.087 165.742 63.488 374.199-69.413 507.099-80.384 80.53-187.319 124.782-301.129 124.782s-220.745-44.251-301.129-124.782c-166.107-166.034-166.107-436.297 0-602.258 79.579-79.653 185.563-123.465 298.35-123.465 72.85 0 144.969 18.725 208.75 54.053l10.313 5.632z" />
<glyph unicode="&#xe800;" glyph-name="Clock" d="M512-43.739c-278.235 0-504.539 226.377-504.539 504.539s226.304 504.539 504.539 504.539c278.309 0 504.613-226.377 504.613-504.539s-226.377-504.539-504.613-504.539zM512 910.482c-248.027 0-449.755-201.728-449.755-449.682 0-248.027 201.728-449.682 449.682-449.682s449.829 201.655 449.829 449.682c0 247.954-201.801 449.682-449.755 449.682zM485.742 791.479h54.857v-337.701h-54.857v337.701zM485.602 450.155l38.847 38.841 241.633-241.667-38.847-38.841-241.633 241.667z" />
</font>
</defs>
</svg>
